<svg xmlns="http://www.w3.org/2000/svg" viewBox="0 0 100 100"><path d="m 84.999998,17.819825 v 48.125 H 39.985357 l -16.235355,16.23535 v -16.23535 h -8.749999 v -48.125 z m -4.375,4.375 H 19.375002 v 39.375 h 8.749995 v 10.01465 l 10.01465,-10.01465 h 42.48535 z m -21.875001,21.875 h -4.375 v -8.75 h 8.75 v 8.75 q 0,0.92285 -0.34179,1.70899 -0.341801,0.78613 -0.939941,1.38427 -0.598149,0.59815 -1.384279,0.93994 -0.78613,0.3418 -1.70899,0.3418 z m -17.5,0 h -4.375 v -8.75 h 8.75 v 8.75 q 0,0.92285 -0.34179,1.70899 -0.341801,0.78613 -0.939941,1.38427 -0.598149,0.59815 -1.384279,0.93994 -0.78613,0.3418 -1.70899,0.3418 z"/></svg>