<svg xmlns="http://www.w3.org/2000/svg" viewBox="0 0 100 100" fill="none" stroke-linecap="round" stroke-linejoin="round"><path d="M 81.818182,63.172728 63.172728,81.818182 H 36.827273 L 18.181818,63.172728 V 36.827273 L 36.827273,18.181818 h 26.345455 l 18.645454,18.645455 z" stroke-width="6.36364" stroke="#0074fd"/><path d="M 47.669922 31.076172 C 43.448384 31.768431 39.428484 34.555124 37.722656 39.404297 A 3.1818199 3.1818199 0 0 0 39.669922 43.460938 A 3.1818199 3.1818199 0 0 0 43.726562 41.515625 C 45.018217 37.843829 47.912323 36.859351 50.804688 37.355469 C 53.697052 37.851586 56.099549 39.744364 56.09375 43.636719 A 3.1821381 3.1821381 0 0 0 56.09375 43.640625 C 56.09375 45.231533 54.717347 46.832966 52.738281 48.152344 C 50.759215 49.471721 48.722656 50.167969 48.722656 50.167969 A 3.1818199 3.1818199 0 0 0 46.710938 54.193359 A 3.1818199 3.1818199 0 0 0 50.736328 56.205078 C 50.736328 56.205078 53.473917 55.309706 56.267578 53.447266 C 59.06003 51.585631 62.454095 48.415762 62.457031 43.646484 L 62.457031 43.644531 C 62.466222 36.791695 57.375426 32.024496 51.880859 31.082031 C 50.50708 30.846392 49.077101 30.845419 47.669922 31.076172 z M 49.984375 62.732422 A 3.1818199 3.1818199 0 0 0 46.802734 65.914062 A 3.1818199 3.1818199 0 0 0 49.984375 69.095703 L 50.015625 69.095703 A 3.1818199 3.1818199 0 0 0 53.197266 65.914062 A 3.1818199 3.1818199 0 0 0 50.015625 62.732422 L 49.984375 62.732422 z" fill="#0074fd"/></svg>