<svg xmlns="http://www.w3.org/2000/svg" viewBox="0 0 100 100"><path d="m 78.731347,21.343285 q 2.53731,0 4.402981,1.86567 1.86567,1.86567 1.86567,4.55224 v 44.47761 q 0,2.68657 -1.86567,4.55224 -1.86567,1.86567 -4.402981,1.86567 H 56.343288 v -6.41791 H 78.731347 V 27.761195 H 21.417912 v 9.55224 h -6.41791 v -9.55224 q 0,-2.68657 1.865672,-4.55224 1.865671,-1.86567 4.552238,-1.86567 z m -63.731345,47.76119 q 4.029851,0 6.791045,2.7612 2.761193,2.76119 2.761193,6.79104 h -9.552238 z m 0,-12.68656 q 9.253731,0 15.746268,6.49253 6.492537,6.49254 6.492537,15.74627 h -6.268658 q 0,-6.56716 -4.70149,-11.26865 -4.701493,-4.7015 -11.268657,-4.7015 z m 0,-12.83582 q 14.477611,0 24.776119,10.2985 10.298506,10.29851 10.298506,24.77612 h -6.41791 q 0,-11.94029 -8.358207,-20.2985 -8.358209,-8.35821 -20.298508,-8.35821 z"/></svg>