<svg xmlns="http://www.w3.org/2000/svg" viewBox="0 0 100 100">
  <path d="M 49.936 15 C 40.583 15.017 32.092 18.702 25.822 24.693 L 20.782 19.653 C 18.648 17.52 15 19.031 15 22.048 V 40.968 A 3.387 3.387 0 0 0 18.387 44.355 H 37.307 C 40.324 44.355 41.836 40.707 39.702 38.573 L 33.81 32.68 A 23.537 23.537 0 0 1 49.79 26.29 C 62.83 26.178 73.822 36.73 73.709 50.203 C 73.602 62.985 63.24 73.71 50 73.71 C 44.196 73.71 38.71 71.638 34.387 67.845 A 1.69 1.69 0 0 0 32.077 67.923 L 26.479 73.52 A 1.697 1.697 0 0 0 26.547 75.98 A 34.872 34.872 0 0 0 50 85 C 69.33 85 85 69.33 85 50 C 85 30.693 69.244 14.965 49.936 15 Z"/>
</svg>
