<svg xmlns="http://www.w3.org/2000/svg" viewBox="0 0 100 100"><path d="M 65.228365,47.307692 H 52.692308 V 34.771635 c 0,-1.48077 -1.211539,-2.692308 -2.692308,-2.692308 -1.480769,0 -2.692308,1.211538 -2.692308,2.692308 V 47.307692 H 34.771635 c -1.48077,0 -2.692308,1.009616 -2.692308,2.692308 0,1.682692 1.262019,2.692308 2.692308,2.692308 h 12.536057 v 12.536057 c 0,1.598558 1.177885,2.692305 2.692308,2.692305 1.514423,0 2.692308,-1.211535 2.692308,-2.692305 V 52.692308 h 12.536057 c 1.48077,0 2.692305,-1.211539 2.692305,-2.692308 0,-1.480769 -1.211535,-2.692308 -2.692305,-2.692308 z M 50,19.711538 c 8.09375,0 15.699519,3.146635 21.42067,8.867789 5.72116,5.721154 8.86779,13.326923 8.86779,21.420673 0,8.09375 -3.14663,15.699519 -8.86779,21.42067 C 65.699519,77.14183 58.09375,80.28846 50,80.28846 c -8.09375,0 -15.699519,-3.14663 -21.420673,-8.86779 C 22.858173,65.699519 19.711538,58.09375 19.711538,50 c 0,-8.09375 3.146635,-15.699519 8.867789,-21.420673 C 34.300481,22.858173 41.90625,19.711538 50,19.711538 M 50,15 C 30.665865,15 15,30.665865 15,50 15,69.33413 30.665865,85 50,85 69.33413,85 85,69.33413 85,50 85,30.665865 69.33413,15 50,15 Z"/></svg>