<svg width="100%" height="100%" viewBox="0 0 100 100" version="1.1" xmlns="http://www.w3.org/2000/svg" xmlns:xlink="http://www.w3.org/1999/xlink" xml:space="preserve" xmlns:serif="http://www.serif.com/" style="fill-rule:evenodd;clip-rule:evenodd;stroke-linejoin:round;stroke-miterlimit:2;">
    <g transform="matrix(0.642857,0,0,1,17.8571,0)">
        <path d="M85,19.5C85,18.12 83.257,17 81.111,17L18.889,17C16.743,17 15,18.12 15,19.5L15,24.5C15,25.88 16.743,27 18.889,27L81.111,27C83.257,27 85,25.88 85,24.5L85,19.5Z"/>
    </g>
    <g transform="matrix(1,0,0,1,0,14)">
        <path d="M85,19.5C85,18.12 83.88,17 82.5,17L17.5,17C16.12,17 15,18.12 15,19.5L15,24.5C15,25.88 16.12,27 17.5,27L82.5,27C83.88,27 85,25.88 85,24.5L85,19.5Z"/>
    </g>
    <g transform="matrix(0.857143,0,0,1,7.14286,28)">
        <path d="M85,19.5C85,18.12 83.693,17 82.083,17L17.917,17C16.307,17 15,18.12 15,19.5L15,24.5C15,25.88 16.307,27 17.917,27L82.083,27C83.693,27 85,25.88 85,24.5L85,19.5Z"/>
    </g>
    <g transform="matrix(1,0,0,1,0,42)">
        <path d="M85,19.5C85,18.12 83.88,17 82.5,17L17.5,17C16.12,17 15,18.12 15,19.5L15,24.5C15,25.88 16.12,27 17.5,27L82.5,27C83.88,27 85,25.88 85,24.5L85,19.5Z"/>
    </g>
    <g transform="matrix(0.785714,0,0,1,10.7143,56)">
        <path d="M85,19.5C85,18.12 83.574,17 81.818,17L18.182,17C16.426,17 15,18.12 15,19.5L15,24.5C15,25.88 16.426,27 18.182,27L81.818,27C83.574,27 85,25.88 85,24.5L85,19.5Z"/>
    </g>
</svg>
