<svg xmlns="http://www.w3.org/2000/svg" viewBox="0 0 100 100"><path d="M 82.307692,50 C 82.307692,32.163462 67.836538,17.692308 50,17.692308 32.163462,17.692308 17.692308,32.163462 17.692308,50 17.692308,67.836538 32.163462,82.307692 50,82.307692 67.836538,82.307692 82.307692,67.836538 82.307692,50 Z" fill="none" stroke="#de0000" stroke-width="5.38462px" stroke-miterlimit="10"/><path d="M 49.034135,34.864183 50,55.384615 50.964183,34.864183 a 0.96586538,0.96586538 0 0 0 -0.974279,-1.009616 v 0 a 0.96586538,0.96586538 0 0 0 -0.955769,1.009616 z" fill="none" stroke="#de0000" stroke-width="5.38462px" stroke-linecap="round" stroke-linejoin="round"/><path d="M 50,68.83101 A 3.3653846,3.3653846 0 1 1 53.365385,65.465625 3.3653846,3.3653846 0 0 1 50,68.83101 Z" fill="#de0000"/></svg>