<svg xmlns="http://www.w3.org/2000/svg" viewBox="0 0 100 100"><path d="m 72.449261,59.6405 c -1.2157,-1.24001 -3.23377,-1.24001 -4.47378,-0.0243 L 53.168261,74.37479 V 18.13652 c 0,-1.7263 -1.41022,-3.13651 -3.16082,-3.13651 -1.75061,0 -3.16082,1.41021 -3.16082,3.13651 V 74.37479 L 32.039391,59.59188 c -1.24001,-1.2157 -3.23376,-1.19138 -4.47377,0.0243 -1.2157,1.24001 -1.2157,3.20944 0.0243,4.44946 l 20.18062,20.03473 c 0.29177,0.26746 0.60785,0.48628 0.99687,0.65648 0.38903,0.1702 0.80236,0.24314 1.2157,0.24314 0.82668,0 1.60473,-0.31608 2.21258,-0.89962 l 20.18061,-20.03473 c 1.26433,-1.19139 1.28865,-3.18514 0.0729,-4.42515 z"/></svg>