<?xml version="1.0" encoding="UTF-8" standalone="no"?>
<svg
   viewBox="0 0 100 100"
   xmlns="http://www.w3.org/2000/svg">
  <g
     transform="matrix(4.375,0,0,4.375,15,12.96282)">
    <path
       d="M 5,8 A 1,1 0 1 1 3,8 1,1 0 0 1 5,8 Z M 9,8 A 1,1 0 1 1 7,8 1,1 0 0 1 9,8 Z m 3,1 a 1,1 0 1 0 0,-2 1,1 0 0 0 0,2 z" />
    <path
       d="m 2.165,15.803 0.02,-0.004 c 1.83,-0.363 2.948,-0.842 3.468,-1.105 A 9.06,9.06 0 0 0 8,15 c 4.418,0 8,-3.134 8,-7 C 16,4.134 12.418,1 8,1 3.582,1 0,4.134 0,8 c 0,1.76 0.743,3.37 1.97,4.6 a 10.437,10.437 0 0 1 -0.524,2.318 l -0.003,0.011 a 10.722,10.722 0 0 1 -0.244,0.637 c -0.079,0.186 0.074,0.394 0.273,0.362 a 21.673,21.673 0 0 0 0.693,-0.125 z m 0.8,-3.108 A 1,1 0 0 0 2.678,11.894 C 1.618,10.83 1,9.468 1,8 1,4.808 4.004,2 8,2 c 3.996,0 7,2.808 7,6 0,3.193 -3.004,6 -7,6 A 8.06,8.06 0 0 1 5.912,13.728 1,1 0 0 0 5.201,13.802 c -0.387,0.196 -1.24,0.57 -2.634,0.893 a 10.97,10.97 0 0 0 0.398,-2 z" />
  </g>
</svg>
