<svg width="100%" height="100%" viewBox="0 0 100 100" version="1.1" xmlns="http://www.w3.org/2000/svg" xmlns:xlink="http://www.w3.org/1999/xlink" xml:space="preserve" xmlns:serif="http://www.serif.com/" style="fill-rule:evenodd;clip-rule:evenodd;stroke-linejoin:round;stroke-miterlimit:2;">
    <g transform="matrix(1.26006,0,0,1.20879,-13.0619,-17.7456)">
        <path d="M41.826,59.706L41.826,74.599L48.852,74.599C53.818,74.599 57.315,74.029 59.345,72.89C61.374,71.75 62.389,69.846 62.389,67.177C62.389,64.475 61.421,62.555 59.485,61.415C57.549,60.276 54.161,59.706 49.321,59.706L41.826,59.706ZM65.715,54.287C69.119,55.589 71.617,57.371 73.21,59.633C74.802,61.895 75.598,64.784 75.598,68.3C75.598,71.262 74.911,73.964 73.537,76.405C72.163,78.847 70.196,80.849 67.635,82.411C66.137,83.323 64.458,83.982 62.6,84.389C60.742,84.795 58.111,84.999 54.707,84.999L30.257,84.999C28.196,84.999 26.72,84.576 25.83,83.729C24.94,82.883 24.495,81.5 24.495,79.579C24.495,77.854 24.917,76.544 25.76,75.648C26.603,74.753 27.837,74.306 29.46,74.306L30.257,74.306L30.257,37.881L29.46,37.881C27.837,37.881 26.603,37.425 25.76,36.513C24.917,35.602 24.495,34.267 24.495,32.509C24.495,30.622 24.948,29.246 25.854,28.384C26.759,27.521 28.227,27.09 30.257,27.09L51.803,27.09C58.392,27.09 63.396,28.424 66.816,31.094C70.235,33.763 71.945,37.669 71.945,42.812C71.945,45.351 71.422,47.589 70.376,49.526C69.33,51.463 67.776,53.05 65.715,54.287ZM41.826,37.588L41.826,49.892L48.15,49.892C51.991,49.892 54.7,49.42 56.277,48.476C57.854,47.532 58.642,45.937 58.642,43.691C58.642,41.575 57.932,40.029 56.511,39.052C55.09,38.076 52.787,37.588 49.602,37.588L41.826,37.588Z" style="fill-rule:nonzero;"/>
    </g>
</svg>
