<?xml version="1.0" encoding="UTF-8" standalone="no"?>
<svg
   width="100"
   height="100"
   viewBox="0 0 100 100"
   version="1.1"
   xmlns="http://www.w3.org/2000/svg"
   xmlns:svg="http://www.w3.org/2000/svg">
  <path
     d="m 50,32.500285 a 2.1875353,2.1875353 0 0 1 2.187535,2.187535 v 6.562606 h 6.562606 a 2.1875353,2.1875353 0 0 1 0,4.37507 h -6.562606 v 6.562606 a 2.1875355,2.1875355 0 0 1 -4.375071,0 v -6.562606 h -6.562605 a 2.1875353,2.1875353 0 0 1 0,-4.37507 h 6.562605 V 34.68782 A 2.1875353,2.1875353 0 0 1 50,32.500285 Z M 23.749576,23.750143 a 8.7501413,8.7501413 0 0 1 8.750141,-8.750141 h 35.000565 a 8.7501413,8.7501413 0 0 1 8.750142,8.750141 v 59.06345 a 2.1875353,2.1875353 0 0 1 -3.39943,1.82003 L 50,72.317802 27.149006,84.633623 a 2.1875353,2.1875353 0 0 1 -3.39943,-1.82003 z m 8.750141,-4.37507 a 4.3750706,4.3750706 0 0 0 -4.37507,4.37507 v 54.97714 L 48.788105,67.868355 a 2.1875353,2.1875353 0 0 1 2.423789,0 l 20.663459,10.858928 v -54.97714 a 4.3750706,4.3750706 0 0 0 -4.375071,-4.37507 z" />
</svg>
