<?xml version="1.0" encoding="UTF-8" standalone="no"?>
<svg
   width="100"
   height="100"
   viewBox="0 0 100 100"
   version="1.1"
   xmlns="http://www.w3.org/2000/svg"
   xmlns:svg="http://www.w3.org/2000/svg">
  <path
     d="M 57.091355,58.410205 V 33.589796 L 42.908623,45.999999 Z M 55.386131,60.358676 41.205974,47.948485 a 2.5876182,2.5876182 0 0 1 0,-3.89697 L 55.386131,31.641324 a 2.5876182,2.5876182 0 0 1 4.292817,1.948472 v 24.820409 a 2.5876182,2.5876182 0 0 1 -4.292817,1.948471 z M 23.749576,23.750141 A 8.7501413,8.7501413 0 0 1 32.499717,15 h 35.000565 a 8.7501413,8.7501413 0 0 1 8.750142,8.750141 v 59.063454 a 2.1875353,2.1875353 0 0 1 -3.39943,1.820029 L 50,72.3178 27.149006,84.633624 a 2.1875353,2.1875353 0 0 1 -3.39943,-1.820029 z m 8.750141,-4.37507 a 4.3750706,4.3750706 0 0 0 -4.37507,4.37507 V 78.727279 L 48.788105,67.868353 a 2.1875353,2.1875353 0 0 1 2.423789,0 L 71.875353,78.727279 V 23.750141 a 4.3750706,4.3750706 0 0 0 -4.375071,-4.37507 z" />
</svg>
