<?xml version="1.0" encoding="UTF-8" standalone="no"?>
<svg
   width="100"
   height="100"
   viewBox="0 0 100 100"
   version="1.1"
   xmlns="http://www.w3.org/2000/svg"
   xmlns:svg="http://www.w3.org/2000/svg">
  <path
     d="M 23.749575,23.750142 A 8.7501418,8.7501418 0 0 1 32.499715,15 H 67.50028 a 8.7501418,8.7501418 0 0 1 8.750146,8.750142 v 59.063457 a 2.1875354,2.1875354 0 0 1 -3.399431,1.820025 L 50,72.317804 27.149004,84.633624 a 2.1875354,2.1875354 0 0 1 -3.399429,-1.820025 z m 8.750142,-4.375071 a 4.3750709,4.3750709 0 0 0 -4.375072,4.375071 v 54.977141 l 20.66346,-10.858926 a 2.1875354,2.1875354 0 0 1 2.423789,0 L 71.875348,78.727283 V 23.750142 A 4.3750709,4.3750709 0 0 0 67.50028,19.375071 Z m 6.562605,24.062889 a 2.1875354,2.1875354 0 0 1 2.187537,-2.187535 H 58.75014 a 2.1875355,2.1875355 0 0 1 0,4.375071 H 41.249859 A 2.1875354,2.1875354 0 0 1 39.062322,43.43796 Z" />
</svg>
