<svg width="100%" height="100%" viewBox="0 0 100 100" version="1.1" xmlns="http://www.w3.org/2000/svg" xmlns:xlink="http://www.w3.org/1999/xlink" xml:space="preserve" xmlns:serif="http://www.serif.com/" style="fill-rule:evenodd;clip-rule:evenodd;stroke-linecap:round;stroke-linejoin:round;stroke-miterlimit:1.5;">
    <g transform="matrix(1.23467,0,0,1.23467,-4.08433,7.40722)">
        <path d="M19.559,24.405L27.188,28.027C27.617,28.23 27.918,28.431 28.09,28.63C28.262,28.829 28.348,29.07 28.348,29.351C28.348,29.679 28.246,29.945 28.043,30.148C27.84,30.351 27.57,30.452 27.234,30.452C27.094,30.452 26.939,30.429 26.771,30.382C26.604,30.335 26.398,30.257 26.156,30.148L16.922,25.894C16.875,25.87 16.801,25.839 16.699,25.8C15.871,25.417 15.457,24.968 15.457,24.452C15.457,23.929 15.891,23.468 16.758,23.07L16.852,23.011L26.156,18.675C26.469,18.534 26.699,18.443 26.848,18.4C26.996,18.357 27.125,18.335 27.234,18.335C27.57,18.335 27.84,18.437 28.043,18.64C28.246,18.843 28.348,19.109 28.348,19.437C28.348,19.718 28.26,19.962 28.084,20.169C27.908,20.376 27.609,20.581 27.188,20.784L19.559,24.405Z" style="fill-rule:nonzero;"/>
        <path d="M37.078,23.468C36.313,23.468 35.678,23.755 35.174,24.329C34.67,24.904 34.418,25.632 34.418,26.515C34.418,27.421 34.668,28.161 35.168,28.736C35.668,29.31 36.305,29.597 37.078,29.597C37.852,29.597 38.49,29.308 38.994,28.73C39.498,28.152 39.75,27.413 39.75,26.515C39.75,25.64 39.496,24.913 38.988,24.335C38.48,23.757 37.844,23.468 37.078,23.468ZM34.488,22.027C34.863,21.698 35.309,21.441 35.824,21.253C36.34,21.066 36.879,20.972 37.441,20.972C39.066,20.972 40.396,21.509 41.432,22.583C42.467,23.657 42.984,25.034 42.984,26.714C42.984,28.245 42.457,29.525 41.402,30.552C40.348,31.579 39.02,32.093 37.418,32.093C36.66,32.093 36.002,31.962 35.443,31.7C34.885,31.439 34.43,31.046 34.078,30.523L34.078,31.296C34.078,31.452 34.018,31.575 33.896,31.665C33.775,31.755 33.605,31.8 33.387,31.8L31.582,31.8C31.051,31.8 30.674,31.7 30.451,31.501C30.229,31.302 30.117,30.968 30.117,30.499C30.117,30.085 30.225,29.771 30.439,29.556C30.654,29.341 30.973,29.234 31.395,29.234L31.582,29.234L31.582,19.062L31.395,19.062C30.973,19.062 30.65,18.95 30.428,18.728C30.205,18.505 30.094,18.183 30.094,17.761C30.094,17.3 30.207,16.968 30.434,16.765C30.66,16.562 31.043,16.46 31.582,16.46L33.773,16.46C34.023,16.46 34.205,16.521 34.318,16.642C34.432,16.763 34.488,16.96 34.488,17.234L34.488,22.027Z" style="fill-rule:nonzero;"/>
        <path d="M50.473,25.437L50.473,29.234L53.238,29.234C53.77,29.234 54.146,29.331 54.369,29.527C54.592,29.722 54.703,30.046 54.703,30.499C54.703,30.96 54.592,31.292 54.369,31.495C54.146,31.698 53.77,31.8 53.238,31.8L46.688,31.8C46.148,31.8 45.766,31.698 45.539,31.495C45.313,31.292 45.199,30.96 45.199,30.499C45.199,30.046 45.311,29.722 45.533,29.527C45.756,29.331 46.141,29.234 46.688,29.234L47.578,29.234L47.578,23.538L47.074,23.538C46.543,23.538 46.166,23.439 45.943,23.239C45.721,23.04 45.609,22.71 45.609,22.249C45.609,21.788 45.717,21.46 45.932,21.265C46.146,21.07 46.527,20.972 47.074,20.972L49.57,20.972C49.781,20.972 49.945,21.017 50.063,21.107C50.18,21.196 50.238,21.32 50.238,21.476L50.238,23.21C51.09,22.296 51.885,21.644 52.623,21.253C53.361,20.862 54.156,20.667 55.008,20.667C55.781,20.667 56.395,20.841 56.848,21.189C57.301,21.536 57.527,22.003 57.527,22.589C57.527,23.042 57.371,23.415 57.059,23.708C56.746,24.001 56.344,24.148 55.852,24.148C55.5,24.148 55.084,24.019 54.604,23.761C54.123,23.503 53.789,23.374 53.602,23.374C53.227,23.374 52.785,23.542 52.277,23.878C51.77,24.214 51.168,24.734 50.473,25.437Z" style="fill-rule:nonzero;"/>
        <path d="M68.074,24.405L60.434,20.784C60.02,20.581 59.725,20.376 59.549,20.169C59.373,19.962 59.285,19.718 59.285,19.437C59.285,19.109 59.383,18.843 59.578,18.64C59.773,18.437 60.035,18.335 60.363,18.335C60.488,18.335 60.631,18.359 60.791,18.405C60.951,18.452 61.18,18.542 61.477,18.675L70.758,23.011L70.852,23.07C71.719,23.468 72.152,23.929 72.152,24.452C72.152,24.976 71.734,25.425 70.898,25.8C70.82,25.847 70.758,25.878 70.711,25.894L61.441,30.148C61.207,30.257 61.006,30.335 60.838,30.382C60.67,30.429 60.512,30.452 60.363,30.452C60.035,30.452 59.773,30.353 59.578,30.154C59.383,29.954 59.285,29.687 59.285,29.351C59.285,29.07 59.369,28.829 59.537,28.63C59.705,28.431 60.004,28.23 60.434,28.027L68.074,24.405Z" style="fill-rule:nonzero;"/>
    </g>
    <g transform="matrix(1,0,0,1,0,5)">
        <path d="M70,50L70,65L35,65" style="fill:none;stroke:black;stroke-width:3px;"/>
        <path d="M45,60L35,65L45,70" style="fill:none;stroke:black;stroke-width:3px;"/>
    </g>
</svg>
