<svg xmlns="http://www.w3.org/2000/svg" viewBox="0 0 24 24" fill="none">
  <path d="M 12 9.443 A 3.293 3.293 0 0 0 8.713 12.73 A 3.293 3.293 0 0 0 12 16.017 A 3.293 3.293 0 0 0 15.287 12.73 A 3.293 3.293 0 0 0 12 9.443 Z M 12 10.173 A 2.551 2.551 0 0 1 14.557 12.73 A 2.551 2.551 0 0 1 12 15.287 A 2.551 2.551 0 0 1 9.443 12.73 A 2.551 2.551 0 0 1 12 10.174 Z M 9.809 5.062 A 0.365 0.365 0 0 0 9.505 5.225 L 8.152 7.252 H 5.426 A 1.832 1.832 0 0 0 3.6 9.078 V 17.113 C 3.6 18.117 4.422 18.939 5.426 18.939 H 18.574 A 1.832 1.832 0 0 0 20.4 17.113 V 9.078 A 1.832 1.832 0 0 0 18.574 7.252 H 15.848 L 14.495 5.224 A 0.365 0.365 0 0 0 14.191 5.061 Z M 10.004 5.792 H 13.996 L 15.348 7.821 A 0.365 0.365 0 0 0 15.652 7.984 H 18.574 C 19.184 7.984 19.67 8.47 19.67 9.079 V 17.114 A 1.09 1.09 0 0 1 18.574 18.21 H 5.426 A 1.09 1.09 0 0 1 4.33 17.114 V 9.078 C 4.33 8.468 4.817 7.983 5.426 7.983 H 8.348 A 0.365 0.365 0 0 0 8.652 7.82 Z" color="#000" font-weight="400" font-family="sans-serif" overflow="visible" fill="#000" stroke="none"/>
</svg>