<svg xmlns="http://www.w3.org/2000/svg" viewBox="0 0 24 24" fill="none">
  <path d="M 9.809 5.06 A 0.365 0.365 0 0 0 9.443 5.426 A 0.365 0.365 0 0 0 9.809 5.791 H 13.996 L 15.348 7.82 A 0.365 0.365 0 0 0 15.652 7.983 H 18.574 C 19.184 7.983 19.67 8.469 19.67 9.078 V 15.9 A 0.365 0.365 0 0 0 20.035 16.266 A 0.365 0.365 0 0 0 20.4 15.9 V 9.078 A 1.832 1.832 0 0 0 18.574 7.252 H 15.848 L 14.495 5.224 A 0.365 0.365 0 0 0 14.191 5.061 Z M 5.426 7.253 A 1.832 1.832 0 0 0 3.6 9.078 V 17.113 C 3.6 18.117 4.422 18.939 5.426 18.939 H 18.574 A 0.365 0.365 0 0 0 18.939 18.574 A 0.365 0.365 0 0 0 18.574 18.209 H 5.426 A 1.09 1.09 0 0 1 4.33 17.113 V 9.078 C 4.33 8.468 4.817 7.983 5.426 7.983 H 7.617 A 0.365 0.365 0 0 0 7.983 7.617 A 0.365 0.365 0 0 0 7.617 7.252 Z M 10.342 9.971 A 0.365 0.365 0 0 0 10.128 10.034 C 8.436 11.19 8.21 13.62 9.66 15.07 C 11.11 16.52 13.54 16.294 14.698 14.602 A 0.365 0.365 0 0 0 14.602 14.094 A 0.365 0.365 0 0 0 14.094 14.19 A 2.549 2.549 0 0 1 10.177 14.554 A 2.549 2.549 0 0 1 10.541 10.636 A 0.365 0.365 0 0 0 10.636 10.128 A 0.365 0.365 0 0 0 10.342 9.97 Z M 3.948 3.6 A 0.365 0.365 0 0 0 3.707 3.707 A 0.365 0.365 0 0 0 3.707 4.224 L 19.777 20.294 A 0.365 0.365 0 0 0 20.293 20.294 A 0.365 0.365 0 0 0 20.293 19.777 L 4.223 3.707 A 0.365 0.365 0 0 0 3.948 3.6 Z" color="#000" font-weight="400" font-family="sans-serif" overflow="visible" fill="#d74417" stroke="none"/>
</svg>