<svg xmlns="http://www.w3.org/2000/svg" viewBox="0 0 100 100"><path d="m 85,25.9375 v 52.5 H 15 v -52.5 h 18.764648 l 4.375,-4.375 h 23.720704 l 4.375,4.375 z m -4.375,4.375 H 64.389648 l -4.375,-4.375 H 39.985352 l -4.375,4.375 H 19.375 v 43.75 h 61.25 z M 50,34.6875 q 3.623047,0 6.818848,1.367187 3.1958,1.367188 5.571289,3.742676 2.375488,2.375489 3.742675,5.571289 Q 67.5,48.564453 67.5,52.1875 q 0,3.623047 -1.367188,6.81885 -1.367187,3.1958 -3.742675,5.57129 -2.375489,2.37549 -5.571289,3.74267 Q 53.623047,69.6875 50,69.6875 q -3.623047,0 -6.818848,-1.36719 -3.1958,-1.36718 -5.571289,-3.74267 Q 35.234375,62.20215 33.867187,59.00635 32.5,55.810547 32.5,52.1875 q 0,-3.623047 1.367187,-6.818848 1.367188,-3.1958 3.742676,-5.571289 2.375489,-2.375488 5.571289,-3.742676 Q 46.376953,34.6875 50,34.6875 Z m 0,30.625 q 2.700195,0 5.092773,-1.04248 2.392579,-1.04248 4.169922,-2.81982 1.777344,-1.77735 2.819825,-4.169927 1.04248,-2.392578 1.04248,-5.092773 0,-2.700195 -1.04248,-5.092773 Q 61.040039,44.702148 59.262695,42.924805 57.485352,41.147461 55.092773,40.10498 52.700195,39.0625 50,39.0625 q -2.700195,0 -5.092773,1.04248 -2.392579,1.042481 -4.169922,2.819825 -1.777344,1.777343 -2.819825,4.169922 -1.04248,2.392578 -1.04248,5.092773 0,2.700195 1.04248,5.092773 1.042481,2.392577 2.819825,4.169927 1.777343,1.77734 4.169922,2.81982 Q 47.299805,65.3125 50,65.3125 Z M 25.9375,34.6875 q 0.888672,0 1.538086,0.649414 Q 28.125,35.986328 28.125,36.875 q 0,0.888672 -0.649414,1.538086 -0.649414,0.649414 -1.538086,0.649414 -0.888672,0 -1.538086,-0.649414 Q 23.75,37.763672 23.75,36.875 q 0,-0.888672 0.649414,-1.538086 Q 25.048828,34.6875 25.9375,34.6875 Z"/></svg>