<svg xmlns="http://www.w3.org/2000/svg" viewBox="0 0 100 100">
  <path fill-rule="evenodd" d="M 83.894,13.016392 A 2.3333333,2.3333333 0 0 1 85,14.999726 v 70 a 2.3333333,2.3333333 0 0 1 -2.333333,2.333333 h -14 a 2.3333333,2.3333333 0 0 1 -2.333334,-2.333333 v -7 h -4.666666 v 7 a 2.3333333,2.3333333 0 0 1 -2.333334,2.333333 h -42 A 2.3333333,2.3333333 0 0 1 15,84.999726 V 59.333059 a 2.3333333,2.3333333 0 0 1 1.596,-2.212 L 43,48.319726 V 33.666393 a 2.3333333,2.3333333 0 0 1 1.288,-2.086 L 81.621333,12.913726 A 2.3333333,2.3333333 0 0 1 83.894,13.016392 Z M 43,53.238393 19.666667,61.013059 V 82.666393 H 43 Z m 4.666667,29.428 H 57 v -7 a 2.3333333,2.3333333 0 0 1 2.333333,-2.333334 h 9.333334 A 2.3333333,2.3333333 0 0 1 71,75.666393 v 7 h 9.333333 V 18.775059 L 47.666667,35.108393 Z" />
  <path d="M 24.333333,61.666666 H 29 v 4.666667 h -4.666667 z m 9.333334,0 h 4.666666 v 4.666667 H 33.666667 Z M 24.333333,71 H 29 v 4.666667 h -4.666667 z m 9.333334,0 h 4.666666 v 4.666667 H 33.666667 Z M 52.333333,52.333334 H 57 V 57 h -4.666667 z m 9.333334,0 h 4.666666 V 57 h -4.666666 z m -9.333334,9.333333 H 57 v 4.666667 h -4.666667 z m 9.333334,0 h 4.666666 v 4.666667 H 61.666667 Z M 71,52.333334 h 4.666667 V 57 H 71 Z m 0,9.333333 h 4.666667 v 4.666667 H 71 Z M 52.333333,43 H 57 v 4.666667 h -4.666667 z m 9.333334,0 h 4.666666 v 4.666667 H 61.666667 Z M 71,43 h 4.666667 v 4.666667 H 71 Z M 52.333333,33.666667 H 57 v 4.666667 h -4.666667 z m 9.333334,0 h 4.666666 v 4.666667 h -4.666666 z m 9.333333,0 h 4.666667 v 4.666667 H 71 Z m 0,-9.333333 h 4.666667 V 29 H 71 Z" />
</svg>
