<svg xmlns="http://www.w3.org/2000/svg" viewBox="0 0 100 100"><path d="M70.73380335 72.76957039c.7928059-9.8132958 1.61270967-19.62581736 2.3838373-29.4406616.36853086-4.71657577-2.32731891-7.5781096-7.04699159-7.57965805-5.27788855-.00464535-10.55422866-.0030969-15.8321172-.0030969-5.424217 0-10.85153088-.01548449-16.27574787.0061938-3.99654697.01625871-6.65368552 2.48371226-6.7822068 6.33935037-.03716277 1.06068759.1734263 2.12679475.27330126 3.19290192 1.03668664 11.27193479 2.07724439 22.54232112 3.10928568 33.81580436.30891558 3.37949003 2.93740782 5.8763641 6.32076898 5.8856548 9.0398455.01780716 18.08278789.02090406 27.12263338-.00464535 3.3624571-.00774224 5.96694838-2.46435664 6.24721765-5.81520037.18116854-2.13066588.30659291-4.26675133.4800192-6.39664298zM41.66167262 52.8936785v20.2428743c0 .51253663.00464535 1.0227506-.15407068 1.5314161-.46840583 1.51283471-1.75207009 2.4535175-3.21380598 2.32577046-1.48341418-.13161817-2.6269438-1.26895399-2.8197257-2.80501544-.03561433-.29110842-.04645348-.58995908-.04645348-.88261595.00774225-9.33017969.01393605-18.65571403.04025968-27.9851195.0061938-1.77994217 1.36805473-3.08218781 3.0945754-3.06747755 1.68316411.01006492 3.05121884 1.33785997 3.08528472 3.1193506.04877614 2.50693899.01393604 5.01465221.01393604 7.52081698zm9.25507991 23.78649993c-1.17991817.52879535-2.30873752.38324114-3.30361603-.46221204-.77654719-.66118774-1.09010812-1.52599653-1.08391432-2.54952134.01471026-4.68173568.00464534-9.36579402.00464534-14.0475297 0-4.68405834-.01238759-9.36579401.00464535-14.04907813.01006492-2.28396234 1.7334887-3.70853546 3.85021854-3.2269678 1.42921846.32362585 2.32964158 1.56780465 2.34357762 3.32684276.01625872 2.7283672.00464535 5.45673442.00464535 8.18587585 0 6.5994898-.0030969 13.19975384.0030969 19.8007921-.00077423 1.37889387-.53808605 2.44190413-1.82329875 3.0217983zm12.90632275-2.9366336c-.07045443 1.88755937-1.44702563 3.28271196-3.20219261 3.2618079-1.68316411-.02167829-2.99702312-1.42767002-3.00476537-3.3152294-.02090406-4.68173567-.00774224-9.36424557-.00774224-14.04598124V45.59738663c.00154845-1.3200528.51718198-2.3776435 1.70561662-3.0032169 1.11333486-.58221685 2.22357282-.45834092 3.23161314.26710745.93681167.67822068 1.27437356 1.63671064 1.27282511 2.79030517-.01703294 8.77428649-.01006492 17.54857297-.00774224 26.32285946.00077422.59150753.037937 1.17991816.01238759 1.76910302zm3.96402954-58.57240762c-3.32452009.81680687-6.63510413 1.69400325-9.94104283 2.59442637-.87022836.23768693-1.50973782.16258715-2.17479668-.52415-1.10946374-1.1396585-2.53713375-1.4872853-4.07551787-1.1427554-1.686261.37937002-3.3593602.81835533-5.02703981 1.28289004-1.4710266.40569365-2.66023545 1.27824468-3.05431573 2.77172378-.32130318 1.22017784-1.06223605 1.58328914-2.14305348 1.8472997-3.82776602.93061788-7.64237023 1.91930259-11.45078065 2.92269757-2.13995657.56440967-3.3942003 2.48990605-3.08063936 4.5973452.2810435 1.86665531 2.0400816 3.32606853 4.041452 3.31058404.58995908.05264727 1.18688618-.15639335 1.79155553-.30891558 8.05890303-2.07182481 16.11470916-4.1490692 24.17206374-6.22786204 4.3859819-1.1303678 8.76964114-2.25841292 13.1509777-3.39961987 1.61890347-.41962969 2.78875672-1.34405376 3.12012481-3.0628322.61783117-3.20916063-1.96575605-5.48925184-5.32898737-4.6608316z"/></svg>