<svg xmlns="http://www.w3.org/2000/svg" viewBox="0 0 100 100"><path d="M 50,85 Q 45.15625,85 40.683596,83.75 36.21094,82.49999 32.324221,80.214841 28.437502,77.929681 25.253908,74.746091 22.070313,71.5625 19.785157,67.675781 17.500001,63.789061 16.250001,59.3164 15,54.84375 15,50 q 0,-4.84375 1.250001,-9.316409 1.25,-4.472655 3.535156,-8.359374 2.285156,-3.88672 5.468751,-7.070312 3.183594,-3.183592 7.070313,-5.468749 Q 36.21094,17.5 40.683596,16.25 45.15625,14.999999 50,14.999999 q 4.84375,0 9.31641,1.250001 4.47265,1.25 8.35937,3.535156 3.88672,2.285157 7.07031,5.468749 3.1836,3.183592 5.46875,7.070312 Q 82.5,36.210936 83.75,40.683591 85,45.15625 85,50 q 0,4.84375 -1.25,9.3164 -1.25,4.47266 -3.53516,8.35938 -2.28515,3.88672 -5.46875,7.07031 -3.18359,3.18359 -7.07031,5.46875 Q 63.78906,82.49999 59.31641,83.75 54.84375,85 50,85 Z m 0,-65 q -6.21094,0 -11.660154,2.363281 -5.44922,2.363281 -9.531251,6.44531 -4.082031,4.082032 -6.445312,9.531252 Q 20,43.78906 20,50 q 0,6.21093 2.363283,11.66015 2.363281,5.44922 6.445312,9.53125 4.082031,4.08203 9.531251,6.44531 Q 43.78906,80 50,80 q 6.21094,0 11.66016,-2.36329 5.44922,-2.36328 9.53125,-6.44531 4.08203,-4.08203 6.44531,-9.53125 Q 80,56.21093 80,50 80,43.78906 77.63672,38.339842 75.27344,32.890622 71.19141,28.80859 67.10938,24.726561 61.66016,22.36328 56.21094,19.999999 50,20 Z m 0,30 V 29.999996 H 45 V 55 h 20 v -5 z"/></svg>