<svg xmlns="http://www.w3.org/2000/svg" viewBox="0 0 100 100"><path d="M81.45233624 54.26264612H60.4841123v-4.90953327c0-.73767837-.59922182-1.33690019-1.33916997-1.33690019h-4.01524011v-7.73540888c4.71546712-2.0030805 8.03048022-6.68109625 8.03048022-12.11835328 0-7.25762027-5.90369674-13.1624519-13.161317-13.1624519-7.25875517 0-13.16131702 5.90483163-13.16131702 13.1624519 0 5.43725703 3.31387822 10.11527279 8.03048023 12.11835328v7.73540888h-4.01524012c-.73881326 0-1.33803507.59808693-1.33803507 1.33690019v4.90953327H18.54652952c-.73767837 0-1.33803508.59808693-1.33803508 1.33690018v20.52334715c0 .73767837.59922182 1.33803507 1.33803508 1.33803507h62.90580672c.73994815 0 1.33916996-.59922181 1.33916996-1.33803507V55.5995463c-.00113489-.73881325-.59922181-1.33690018-1.33916996-1.33690018zM43.45736063 24.07230766c0-1.88732174 1.52983145-3.41942297 3.41942296-3.41942297 1.88959152 0 3.42055786 1.53210123 3.42055786 3.41942297 0 1.88959152-1.53096634 3.42169275-3.42055786 3.42169275-1.88959151 0-3.41942296-1.53210123-3.41942296-3.42169275zm-1.26426724 26.61997515h15.61381387v3.64413115H42.19309339zm37.92007289 24.09144067h-60.2274668V56.93871627h60.2274668zm-57.99627345 8.8782429c0 .73767838.59808692 1.33803508 1.33803507 1.33803508h53.09014484c.73881326 0 1.33916997-.59922181 1.33916997-1.33803507v-4.016375H22.11689283z"/></svg>