<svg xmlns="http://www.w3.org/2000/svg" viewBox="0 0 100 100">
	<path d="m 49.999735,18.087514 c -5.661241,0 -10.294164,4.632929 -10.294164,10.294171 0,5.661242 4.632923,10.294171 10.294164,10.294171 5.661255,0 10.294178,-4.632929 10.294178,-10.294171 0,-5.661242 -4.632923,-10.294171 -10.294178,-10.294171 z m 0,4.1173 c 3.435324,0 6.176883,2.740824 6.176883,6.176871 0,3.435313 -2.740831,6.176871 -6.176883,6.176871 -3.43531,0 -6.176869,-2.740824 -6.176869,-6.176871 0,-3.435312 2.740831,-6.176871 6.176869,-6.176871 z M 17.058648,63.381812 C 15.942777,63.409822 15.025187,64.513474 15,65.440464 v 14.411471 c 0,1.07782 0.980869,2.05865 2.058648,2.05865 l 65.882704,0.0019 C 84.019171,81.912486 85,80.931618 85,79.853836 v -14.41152 c 0,-1.077818 -0.980869,-2.05865 -2.058648,-2.05865 z m 2.058581,4.11702 h 61.765026 v 10.29414 H 19.117229 Z"/>
	<path d="m 65.367909,63.544191 v -9.341178 c 0,-8.012603 -6.984663,-14.530928 -15.569254,-14.530928 -4.007411,0 -7.791107,1.407497 -10.693656,3.97127 l -8.584595,5.764699 -5.797138,-3.959593 C 23.718334,44.764266 22.554885,44.4066 21.350117,44.4066 c -1.980262,0 -3.830033,0.976693 -4.945832,2.61378 -1.855704,2.726657 -1.151173,6.453824 1.568216,8.313238 l 9.567855,6.535748 c 0.864489,0.59152 1.877398,0.905018 2.927947,0.905018 1.029559,0 2.025853,-0.301914 2.882348,-0.873879 l 0.878959,-0.591521 v 2.23567 z M 31.045496,58.444242 c -0.175208,0.117291 -0.375756,0.175212 -0.57849,0.175212 -0.204176,0 -0.409784,-0.0601 -0.585739,-0.180281 l -9.566371,-6.535007 c -0.833344,-0.569798 -1.049108,-1.711579 -0.481485,-2.546313 0.342474,-0.502461 0.909359,-0.801483 1.516096,-0.801483 0.368525,0 0.72547,0.110051 1.031721,0.318577 l 8.119178,5.546731 11.164269,-7.49715 c 2.071452,-1.912793 4.948612,-3.100875 8.13437,-3.100875 6.306844,0 11.417821,4.648161 11.417821,10.379499 V 63.54433 H 38.38197 v -9.341178 c 0,-0.234577 0.0217,-0.464816 0.0384,-0.695779 z"/>
</svg>
