<svg xmlns="http://www.w3.org/2000/svg" viewBox="0 0 100 100">
  <path d="m 50.549063,36.835625 c -5.3025,0 -8.430625,4.025 -8.430625,10.94625 v 4.6375 c 0,6.873125 3.075624,10.77125 8.430625,10.77125 4.283125,0 7.179375,-2.56375 7.564375,-6.20375 h 5.665625 v 0.406875 c -0.4375,6.335 -5.92375,10.793125 -13.256251,10.793125 -9.148125,0 -14.301875,-5.845 -14.301875,-15.763125 v -4.694375 c 0,-9.891875 5.254375,-15.91625 14.30625,-15.91625 7.354375,0 12.840625,4.61125 13.251875,11.2525 v 0.385 h -5.665625 c -0.385,-3.845625 -3.36,-6.615 -7.564374,-6.615 z"/>
  <path d="M 15,23.75 A 8.75,8.75 0 0 1 23.75,15 h 52.5 A 8.75,8.75 0 0 1 85,23.75 v 52.5 A 8.75,8.75 0 0 1 76.25,85 H 23.75 A 8.75,8.75 0 0 1 15,76.25 Z m 65.625,0 A 4.375,4.375 0 0 0 76.25,19.375 h -52.5 a 4.375,4.375 0 0 0 -4.375,4.375 v 52.5 a 4.375,4.375 0 0 0 4.375,4.375 h 52.5 a 4.375,4.375 0 0 0 4.375,-4.375 z"/>
</svg>
