<svg width="100%" height="100%" viewBox="0 0 100 100" version="1.1" xmlns="http://www.w3.org/2000/svg" xmlns:xlink="http://www.w3.org/1999/xlink" xml:space="preserve" xmlns:serif="http://www.serif.com/" style="fill-rule:evenodd;clip-rule:evenodd;stroke-linejoin:round;stroke-miterlimit:2;">
    <path d="M51.745,16.079C51.428,15.397 50.745,14.959 49.992,14.958C49.239,14.956 48.553,15.39 48.233,16.071C38.163,37.931 25.026,45.969 25,60C24.972,74.869 35.171,85.065 50,85C64.829,84.935 75,74.829 75,60C75,46.006 61.715,38.015 51.745,16.079ZM29.71,69.003C33.07,76.674 38.588,79.698 44.276,81.383C45.599,81.775 46.991,81.019 47.383,79.696C47.775,78.373 47.019,76.981 45.696,76.589C41.262,75.275 36.909,72.978 34.29,66.997C33.736,65.733 32.261,65.156 30.997,65.71C29.733,66.264 29.156,67.739 29.71,69.003Z"/>
</svg>
