<svg xmlns="http://www.w3.org/2000/svg" viewBox="0 0 100 100"><path d="M 23.750009,78.437502 A 6.5624978,6.5624978 0 0 0 30.312506,85 h 39.374988 a 6.5624978,6.5624978 0 0 0 6.562497,-6.562498 V 32.500018 H 23.750009 Z M 60.937497,43.437514 a 2.1874993,2.1874993 0 0 1 4.374997,0 v 30.624989 a 2.1874993,2.1874993 0 0 1 -4.374997,0 z m -13.124997,0 a 2.1875,2.1875 0 0 1 4.375,0 v 30.624989 a 2.1875,2.1875 0 0 1 -4.375,0 z m -13.124995,0 a 2.1874993,2.1874993 0 0 1 4.374998,0 v 30.624989 a 2.1874993,2.1874993 0 0 1 -4.374998,0 z M 78.43749,19.375022 H 62.031245 L 60.74609,16.818383 A 3.2812489,3.2812489 0 0 0 57.806637,15.000024 H 42.17969 a 3.2429676,3.2429676 0 0 0 -2.925781,1.818359 l -1.285154,2.556639 H 21.56251 a 2.1874993,2.1874993 0 0 0 -2.1875,2.1875 v 4.374998 a 2.1874993,2.1874993 0 0 0 2.1875,2.187499 h 56.87498 a 2.1874993,2.1874993 0 0 0 2.187499,-2.187499 v -4.374998 a 2.1874993,2.1874993 0 0 0 -2.187499,-2.1875 z"/></svg>