<svg xmlns="http://www.w3.org/2000/svg" viewBox="0 0 100 100">
  <path d="M 84.031 52.36 L 60.697 75.694 C 58.613 77.778 55.002 76.319 55.002 73.333 V 59.999 H 36.112 A 3.325 3.325 0 0 1 32.779 56.666 V 43.332 A 3.325 3.325 0 0 1 36.112 39.998 H 55.002 V 26.664 C 55.002 23.692 58.599 22.219 60.697 24.303 L 84.03 47.637 A 3.362 3.362 0 0 1 84.03 52.36 Z M 41.668 75 V 69.444 C 41.668 68.527 40.918 67.777 40.001 67.777 H 28.334 A 4.44 4.44 0 0 1 23.889 63.333 V 36.665 A 4.44 4.44 0 0 1 28.334 32.22 H 40.001 C 40.918 32.22 41.668 31.47 41.668 30.553 V 24.997 C 41.668 24.081 40.918 23.331 40.001 23.331 H 28.334 C 20.973 23.33 15 29.303 15 36.665 V 63.333 C 15 70.694 20.973 76.667 28.334 76.667 H 40.001 C 40.918 76.667 41.668 75.917 41.668 75 Z"/>
</svg>
