<svg xmlns="http://www.w3.org/2000/svg" data-name="Layer 1" viewBox="0 0 100 100"><path d="M 80.625,21.5625 H 19.375 A 4.375,4.375 0 0 0 15,25.9375 V 67.5 a 4.375,4.375 0 0 0 4.375,4.375 h 26.25 v 4.375 h -8.75 v 2.1875 h 26.25 V 76.25 h -8.75 v -4.375 h 26.25 A 4.375,4.375 0 0 0 85,67.5 V 25.9375 a 4.375,4.375 0 0 0 -4.375,-4.375 z M 52.1875,76.25 h -4.375 v -4.375 h 4.375 z M 82.8125,67.5 A 2.1875,2.1875 0 0 1 80.625,69.6875 H 19.375 A 2.1875,2.1875 0 0 1 17.1875,67.5 V 25.9375 A 2.1875,2.1875 0 0 1 19.375,23.75 h 61.25 a 2.1875,2.1875 0 0 1 2.1875,2.1875 z M 19.375,60.9375 h 61.25 v -35 H 19.375 Z M 21.5625,28.125 h 56.875 V 58.75 h -56.875 z"/></svg>