<svg xmlns="http://www.w3.org/2000/svg" viewBox="0 0 100 100"><path d="m 58.685756,63.157125 v 1.47332 l 3.494861,4.79687 q 0.30837,0.44542 0.51395,1.19921 0.20558,0.7538 0.20558,1.30201 0,0.89085 -0.342634,1.69604 -0.342633,0.80518 -0.942241,1.40479 -0.599609,0.59961 -1.404797,0.94224 -0.805189,0.34264 -1.696035,0.34264 H 19.385707 q -0.890846,0 -1.696035,-0.34264 -0.805188,-0.34263 -1.404797,-0.94224 -0.599608,-0.59961 -0.942242,-1.40479 Q 15,72.819385 15,71.928535 q 0,-0.54821 0.20558,-1.30201 0.20558,-0.75379 0.51395,-1.19921 l 3.494861,-4.79687 V 41.228585 H 32.371512 V 23.685755 H 85 v 39.47137 z m -35.085658,0 H 54.300049 V 45.614295 H 23.600098 Z m 34.914342,8.73715 q -0.171317,-0.3769 -0.582477,-0.95938 -0.41116,-0.58247 -0.890847,-1.19921 -0.479687,-0.61674 -0.942242,-1.21635 -0.462555,-0.59961 -0.736662,-0.97651 H 22.537934 q -0.274106,0.3769 -0.736661,0.97651 -0.462555,0.59961 -0.942242,1.21635 -0.479687,0.61674 -0.890847,1.19921 -0.41116,0.58248 -0.582477,0.95938 v 0.0343 z m 0.171316,-30.66569 v 17.54283 H 80.614293 V 28.071465 H 36.75722 v 13.15712 z"/></svg>