<svg xmlns="http://www.w3.org/2000/svg" viewBox="0 0 100 100"><path d="m 63.891684,60.80861 3.888973,-3.888973 c 0.607652,-0.607652 1.664967,-0.182295 1.664967,0.692724 v 17.670521 c 0,3.220557 -2.612904,5.833461 -5.83346,5.833461 H 20.83346 C 17.612904,81.116343 15,78.503439 15,75.282882 V 32.504179 c 0,-3.220557 2.612904,-5.83346 5.83346,-5.83346 h 33.238567 c 0.862866,0 1.300375,1.045161 0.692723,1.664966 l -3.888973,3.888974 c -0.182295,0.182294 -0.425356,0.27952 -0.692723,0.27952 H 20.83346 V 75.282882 H 63.612164 V 61.489181 c 0,-0.255214 0.09723,-0.498275 0.27952,-0.680571 z M 82.923347,36.283774 51.009461,68.197659 40.023112,69.412964 c -3.184097,0.352438 -5.894225,-2.333384 -5.541787,-5.541786 l 1.215304,-10.98635 31.913886,-31.913886 c 2.783046,-2.783046 7.279671,-2.783046 10.050565,0 l 5.250114,5.250114 c 2.783046,2.783047 2.783046,7.291825 0.01215,10.062718 z m -12.007205,3.755289 -7.060917,-7.060917 -22.58035,22.592504 -0.887172,7.935936 7.935936,-0.887172 z m 7.875171,-9.685973 -5.250114,-5.250114 c -0.498275,-0.498274 -1.312529,-0.498274 -1.79865,0 l -3.75529,3.75529 7.060917,7.060917 3.75529,-3.75529 c 0.486121,-0.510427 0.486121,-1.312528 -0.01215,-1.810803 z"/></svg>