<svg xmlns="http://www.w3.org/2000/svg" viewBox="0 0 100 100"><path d="M55.42 77.5h-5.06c-.69 0-1.25.56-1.25 1.25S49.67 80 50.36 80h5.06c.6925 0 1.25-.56 1.25-1.25s-.56-1.25-1.25-1.25zm-12.65 0h-5.06c-.69 0-1.25.56-1.25 1.25S37.02 80 37.71 80h5.06c.6925 0 1.25-.56 1.25-1.25s-.56-1.25-1.25-1.25zm-12.65 0h-5.06c-.69 0-1.25.56-1.25 1.25S24.37 80 25.06 80h5.06c.6925 0 1.25-.56 1.25-1.25s-.56-1.25-1.25-1.25zM55 51.25v-27.5c0-2.0675-1.6825-3.75-3.75-3.75h-27.5C21.6825 20 20 21.6825 20 23.75v27.5c0 2.0675 1.6825 3.75 3.75 3.75h27.5c2.0675 0 3.75-1.6825 3.75-3.75zm-32.5 0v-27.5c0-.69.56-1.25 1.25-1.25h27.5c.69 0 1.25.56 1.25 1.25v27.5c0 .69-.56 1.25-1.25 1.25h-27.5c-.69 0-1.25-.56-1.25-1.25zM58.75 22.5h2.5c.69 0 1.25-.56 1.25-1.25S61.94 20 61.25 20h-2.5c-.69 0-1.25.56-1.25 1.25s.56 1.25 1.25 1.25zm-37.5 45.09c-.69 0-1.25.56-1.25 1.25v5.06c0 .69.56 1.25 1.25 1.25s1.25-.56 1.25-1.25v-5.06c0-.69-.56-1.25-1.25-1.25zm0-10.09c-.69 0-1.25.56-1.25 1.25v2.5c0 .69.56 1.25 1.25 1.25s1.25-.56 1.25-1.25v-2.5c0-.69-.56-1.25-1.25-1.25zm57.5-8.3425c-.69 0-1.25.56-1.25 1.25v5.06c0 .69.56 1.25 1.25 1.25S80 56.16 80 55.4675v-5.06c0-.69-.56-1.25-1.25-1.25zM68.07 77.5h-5.06c-.69 0-1.25.56-1.25 1.25S62.32 80 63.01 80h5.06c.69 0 1.25-.56 1.25-1.25s-.56-1.25-1.25-1.25zm10.68-15.69c-.69 0-1.25.56-1.25 1.25v5.06c0 .69.56 1.25 1.25 1.25S80 68.81 80 68.12v-5.06c0-.69-.56-1.25-1.25-1.25zm0-37.95c-.69 0-1.25.56-1.25 1.25v5.06c0 .69.56 1.25 1.25 1.25S80 30.86 80 30.17v-5.06c0-.69-.56-1.25-1.25-1.25zm0 12.6475c-.69 0-1.25.56-1.25 1.25v5.06c0 .69.56 1.25 1.25 1.25S80 43.51 80 42.8175v-5.06c0-.69-.56-1.25-1.25-1.25zM71.25 60c-.69 0-1.25.56-1.25 1.25v6.985L57.1325 55.3675c-.4875-.4875-1.28-.4875-1.7675 0-.4875.4875-.4875 1.28 0 1.7675L68.23 70h-6.98c-.69 0-1.25.56-1.25 1.25s.56 1.25 1.25 1.25h10c.1625 0 .325-.0325.4775-.0975.1375-.0575.26-.1425.3675-.245.01-.01.025-.0125.0375-.025.115-.115.2075-.255.27-.4075.035-.0875.04-.1775.055-.27.0125-.0675.0425-.1325.0425-.205v-10c0-.69-.56-1.25-1.25-1.25zm7.5 14.4575c-.69 0-1.25.56-1.25 1.25v.5425c0 .69-.56 1.25-1.25 1.25h-.59c-.69 0-1.25.56-1.25 1.25S74.97 80 75.66 80h.59c2.0675 0 3.75-1.6825 3.75-3.75v-.5425c0-.69-.56-1.25-1.25-1.25zM75.1975 21.25c0-.69-.56-1.25-1.25-1.25h-5.06c-.69 0-1.25.56-1.25 1.25s.56 1.25 1.25 1.25h5.06c.69 0 1.25-.56 1.25-1.25z"/></svg>