<?xml version="1.0" encoding="UTF-8" standalone="no"?>
<svg
   viewBox="0 0 100 100"
   version="1.1"
   xmlns="http://www.w3.org/2000/svg">
  <path
     d="M 32.5 15 A 8.75 8.75 0 0 0 23.75 23.75 L 23.75 76.25 A 8.75 8.75 0 0 0 32.5 85 L 67.5 85 A 8.75 8.75 0 0 0 76.25 76.25 L 76.25 34.6875 L 56.5625 15 L 32.5 15 z M 32.5 19.375 L 56.5625 19.375 L 56.5625 28.125 A 6.5625 6.5625 0 0 0 63.125 34.6875 L 71.875 34.6875 L 71.875 76.25 A 4.375 4.375 0 0 1 67.5 80.625 L 32.5 80.625 A 4.375 4.375 0 0 1 28.125 76.25 L 28.125 23.75 A 4.375 4.375 0 0 1 32.5 19.375 z M 50 36.875 A 8.75 8.75 0 0 0 41.25 45.625 L 41.25 50.332031 C 38.8875 51.058281 36.875 52.944375 36.875 55.6875 L 36.875 66.1875 C 36.875 69.7575 40.291875 71.875 43.4375 71.875 L 56.5625 71.875 C 59.708125 71.875 63.125 69.7575 63.125 66.1875 L 63.125 55.6875 C 63.125 52.944375 61.1125 51.058281 58.75 50.332031 L 58.75 45.625 A 8.75 8.75 0 0 0 50 36.875 z M 50 41.25 A 4.375 4.375 0 0 1 54.375 45.625 L 54.375 50 L 45.625 50 L 45.625 45.625 A 4.375 4.375 0 0 1 50 41.25 z " />
</svg>
