<?xml version="1.0" encoding="UTF-8" standalone="no"?>
<svg
   viewBox="0 0 100 100"
   xmlns="http://www.w3.org/2000/svg">
  <path
     d="m 18.855411,27.755854 a 6.6732432,6.6732432 0 0 1 6.673242,-6.673243 h 12.296563 c 4.261978,0 7.829939,2.491344 10.281244,5.267413 1.824019,2.064257 4.02619,3.630245 6.339581,3.630245 H 74.46577 a 6.6732432,6.6732432 0 0 1 6.673243,6.673243 v 2.84725 c 2.535833,1.17894 4.1819,3.897174 3.808198,6.87789 L 82.09996,69.17445 A 11.122072,11.122072 0 0 1 71.053519,78.917385 H 28.936456 A 11.122072,11.122072 0 0 1 17.898912,69.17445 l -2.84725,-22.795798 a 6.6732432,6.6732432 0 0 1 3.803749,-6.87789 z m 4.448828,11.122072 H 76.690185 V 36.653512 A 2.2244144,2.2244144 0 0 0 74.46577,34.429097 H 54.446041 c -4.288671,0 -7.607498,-2.798313 -9.671754,-5.133948 -2.010871,-2.277801 -4.475522,-3.76371 -6.949071,-3.76371 H 25.528653 a 2.2244144,2.2244144 0 0 0 -2.224414,2.224415 z m -1.63272,4.448829 A 2.2244144,2.2244144 0 0 0 19.4649,45.826997 l 2.847251,22.795799 a 6.6732432,6.6732432 0 0 0 6.624305,5.845761 h 42.121511 a 6.6732432,6.6732432 0 0 0 6.624306,-5.845761 l 2.847251,-22.795799 a 2.2244144,2.2244144 0 0 0 -2.206619,-2.500242 z"
     style="stroke-width:4.44883" />
</svg>
