<svg xmlns="http://www.w3.org/2000/svg" version="1.1" viewBox="0 0 100 100">
 <path d="m34.276 31.809a24.194 24.194 0 0 1 15.724-5.8712c11.769 0 21.538 8.75 22.601 20.033 6.965 0.98438 12.399 6.8162 12.399 13.974 0 7.8575-6.5538 14.118-14.494 14.118h-38.964c-9.0694 0-16.542-7.1488-16.542-16.109 0-7.7131 5.5388-14.101 12.871-15.719 0.62562-3.7756 3.0538-7.5381 6.405-10.426m2.8569 3.3119c-3.3119 2.8569-5.0444 6.3-5.0444 8.995v1.96l-1.9469 0.21438c-6.1119 0.66938-10.767 5.6875-10.767 11.664 0 6.4181 5.3812 11.734 12.167 11.734h38.964c5.6569 0 10.119-4.4275 10.119-9.7431 0-5.32-4.4625-9.7475-10.119-9.7475h-2.1875v-2.1875c0.004375-9.7125-8.1331-17.697-18.318-17.697a19.819 19.819 0 0 0-12.867 4.8125z" />
</svg>
