<svg xmlns="http://www.w3.org/2000/svg" viewBox="0 0 100 100"><path d="M 15,68.75 H 59.273437 C 60.24,66.545 62.442344,65 65,65 c 2.557656,0 4.760156,1.545 5.726562,3.75 H 85 v 5 H 70.726562 C 69.76,75.955 67.557656,77.5 65,77.5 c -2.557656,0 -4.760156,-1.545 -5.726563,-3.75 H 15 M 15,47.5 H 29.273437 C 30.24,45.295 32.442344,43.75 35,43.75 c 2.557656,0 4.760156,1.545 5.726562,3.75 H 85 v 5 H 40.726562 C 39.76,54.705 37.557656,56.25 35,56.25 c -2.557656,0 -4.760156,-1.545 -5.726563,-3.75 H 15 M 15,26.25 H 59.273437 C 60.24,24.045 62.442344,22.5 65,22.5 c 2.557656,0 4.760156,1.545 5.726562,3.75 H 85 v 5 H 70.726562 C 69.76,33.455 67.557656,35 65,35 62.442344,35 60.239844,33.455 59.273437,31.25 H 15"/></svg>