<svg xmlns="http://www.w3.org/2000/svg" viewBox="0 0 100 100"><path d="m 22.608696,85 c -0.84,0 -1.52174,-0.681739 -1.52174,-1.521739 V 16.521739 c 0,-0.84 0.68174,-1.521739 1.52174,-1.521739 0.84,0 1.521739,0.681739 1.521739,1.521739 v 66.956522 c 0,0.84 -0.681739,1.521739 -1.521739,1.521739 z m 18.260869,0 c -0.84,0 -1.521739,-0.681739 -1.521739,-1.521739 V 16.521739 c 0,-0.84 0.681739,-1.521739 1.521739,-1.521739 0.84,0 1.521739,0.681739 1.521739,1.521739 v 66.956522 c 0,0.84 -0.681739,1.521739 -1.521739,1.521739 z m 18.26087,0 c -0.84,0 -1.521739,-0.681739 -1.521739,-1.521739 V 16.521739 c 0,-0.84 0.681739,-1.521739 1.521739,-1.521739 0.84,0 1.521739,0.681739 1.521739,1.521739 v 66.956522 c 0,0.84 -0.681739,1.521739 -1.521739,1.521739 z m 18.260869,0 c -0.84,0 -1.521739,-0.681739 -1.521739,-1.521739 V 16.521739 c 0,-0.84 0.681739,-1.521739 1.521739,-1.521739 0.84,0 1.521739,0.681739 1.521739,1.521739 v 66.956522 c 0,0.84 -0.681739,1.521739 -1.521739,1.521739 z m 6.086957,-6.086957 H 16.521739 c -0.84,0 -1.521739,-0.681739 -1.521739,-1.521739 0,-0.84 0.681739,-1.521739 1.521739,-1.521739 h 66.956522 c 0.84,0 1.521739,0.681739 1.521739,1.521739 0,0.84 -0.681739,1.521739 -1.521739,1.521739 z m 0,-18.260869 H 16.521739 c -0.84,0 -1.521739,-0.681739 -1.521739,-1.521739 0,-0.84 0.681739,-1.521739 1.521739,-1.521739 h 66.956522 c 0.84,0 1.521739,0.681739 1.521739,1.521739 0,0.84 -0.681739,1.521739 -1.521739,1.521739 z m 0,-18.26087 H 16.521739 c -0.84,0 -1.521739,-0.681739 -1.521739,-1.521739 0,-0.84 0.681739,-1.521739 1.521739,-1.521739 h 66.956522 c 0.84,0 1.521739,0.681739 1.521739,1.521739 0,0.84 -0.681739,1.521739 -1.521739,1.521739 z m 0,-18.260869 H 16.521739 c -0.84,0 -1.521739,-0.681739 -1.521739,-1.521739 0,-0.84 0.681739,-1.52174 1.521739,-1.52174 h 66.956522 c 0.84,0 1.521739,0.68174 1.521739,1.52174 0,0.84 -0.681739,1.521739 -1.521739,1.521739 z"/></svg>