<svg xmlns="http://www.w3.org/2000/svg" viewBox="0 0 100 100"><path d="M26.5217391 80.00000095c-.72000001 0-1.30434785-.58434784-1.30434785-1.30434785V21.3043477c0-.72000001.58434784-1.30434785 1.30434785-1.30434785.72000001 0 1.30434785.58434784 1.30434785 1.30434785v57.3913054c0 .72000001-.58434784 1.30434785-1.30434785 1.30434785zm15.6521742 0c-.72000001 0-1.30434785-.58434784-1.30434785-1.30434785V21.3043477c0-.72000001.58434784-1.30434785 1.30434785-1.30434785.72000001 0 1.30434785.58434784 1.30434785 1.30434785v57.3913054c0 .72000001-.58434784 1.30434785-1.30434785 1.30434785zm15.6521742 0c-.72000001 0-1.30434785-.58434784-1.30434785-1.30434785V21.3043477c0-.72000001.58434784-1.30434785 1.30434785-1.30434785.72000001 0 1.30434785.58434784 1.30434785 1.30434785v57.3913054c0 .72000001-.58434784 1.30434785-1.30434785 1.30434785zm15.6521742 0c-.72000001 0-1.30434785-.58434784-1.30434785-1.30434785V21.3043477c0-.72000001.58434784-1.30434785 1.30434785-1.30434785.72000001 0 1.30434785.58434784 1.30434785 1.30434785v57.3913054c0 .72000001-.58434784 1.30434785-1.30434785 1.30434785zm5.2173914-5.2173914H21.3043477c-.72000001 0-1.30434785-.58434784-1.30434785-1.30434785 0-.72000001.58434784-1.30434785 1.30434785-1.30434785h57.3913054c.72000001 0 1.30434785.58434784 1.30434785 1.30434785 0 .72000001-.58434784 1.30434785-1.30434785 1.30434785zm0-15.6521742H21.3043477c-.72000001 0-1.30434785-.58434784-1.30434785-1.30434785 0-.72000001.58434784-1.30434785 1.30434785-1.30434785h57.3913054c.72000001 0 1.30434785.58434784 1.30434785 1.30434785 0 .72000001-.58434784 1.30434785-1.30434785 1.30434785zm0-15.6521742H21.3043477c-.72000001 0-1.30434785-.58434784-1.30434785-1.30434785 0-.72000001.58434784-1.30434785 1.30434785-1.30434785h57.3913054c.72000001 0 1.30434785.58434784 1.30434785 1.30434785 0 .72000001-.58434784 1.30434785-1.30434785 1.30434785zm0-15.6521742H21.3043477c-.72000001 0-1.30434785-.58434784-1.30434785-1.30434785 0-.72000001.58434784-1.30434785 1.30434785-1.30434785h57.3913054c.72000001 0 1.30434785.58434784 1.30434785 1.30434785 0 .72000001-.58434784 1.30434785-1.30434785 1.30434785z"/></svg>