<?xml version="1.0" encoding="iso-8859-1"?>
<!-- Uploaded to: SVG Repo, www.svgrepo.com, Generator: SVG Repo Mixer Tools -->
<svg fill="#000000" height="800px" width="800px" version="1.1" id="Layer_1" xmlns="http://www.w3.org/2000/svg" xmlns:xlink="http://www.w3.org/1999/xlink" 
	 viewBox="0 0 512 512" xml:space="preserve">
<g>
	<g>
		<path d="M256.001,261.274c-128.998,0-233.945,104.947-233.945,233.944c0,9.268,7.514,16.782,16.782,16.782h434.324
			c9.268,0,16.782-7.514,16.782-16.782C489.945,366.221,384.999,261.274,256.001,261.274z M56.316,478.436
			c7.332-88.002,71.783-160.028,156.071-178.81l20.954,20.954l-7.655,92.682c-0.318,3.844,0.729,7.677,2.958,10.827l21.355,30.176
			c1.377,1.947,3.615,3.104,6,3.104s4.622-1.157,6-3.104l21.355-30.176c2.229-3.148,3.276-6.982,2.958-10.827l-7.655-92.682
			l20.954-20.954c84.288,18.781,148.739,90.807,156.071,178.81H56.316z"/>
	</g>
</g>
<g>
	<g>
		<path d="M256.001,0c-66.323,0-120.281,53.958-120.281,120.281s53.958,120.281,120.281,120.281s120.281-53.958,120.281-120.281
			S322.324,0,256.001,0z M256.001,206.998c-47.816,0-86.717-38.901-86.717-86.717s38.901-86.717,86.717-86.717
			s86.717,38.901,86.717,86.717S303.816,206.998,256.001,206.998z"/>
	</g>
</g>
</svg>