<svg xmlns="http://www.w3.org/2000/svg" viewBox="0 0 100 100"><path d="M84.01089425 27.84612027l-1.42803148-1.42703702.1740289-.17402891c.09347839-.09347838.14518983-.21977365.14518983-.35203562 0-.13226196-.0527059-.25855723-.14518983-.35203561l-7.02281218-7.02181774c-.19391792-.19391792-.50915886-.19391792-.70307678 0l-.1740289.17402891-1.42703703-1.42703703c-1.2758805-1.27687494-3.50245604-1.27687494-4.78131988 0L53.15009978 32.76566883c-.19391793.19391792-.19391793.5081644-.00099445.70208232L21.84080796 64.77704297c-.03977804.03977804-.06563376.08651723-.08950058.13425087-.0039778.00696116-.00994451.01292787-.01392232.02088347-.03679468.08552278-.04276138.18099006-.02784462.2774518.0019889.01093896-.00497226.01988902-.00298335.03082798.01988901.08452832 1.87453992 8.50553846-2.3449152 12.72499359-.19391793.19391792-.19391793.50915885 0 .70307678l.09845064.09845063-4.3049779 4.0663097c-.14717874.14021757-.19491238.35501896-.12032856.54495908.07557826.18894567.25855723.31325203.46241966.31325203h4.9145763c.13226197 0 .25855723-.0527059.35203561-.14518983l1.7373057-1.73830015.10839515.10839514c.0974562.0974562.2247459.14518983.35203562.14518983.12728971 0 .25457943-.04872809.35203561-.14518983 2.29320376-2.29320375 5.82549332-2.77451798 8.38620436-2.77451798 2.42347682 0 4.32088912.42562498 4.33878923.42960278.00994451.0019889.01988902-.00497225.02983353-.00298335.02685017.00497226.0527059.01591122.08055052.01591122.06762266 0 .13425087-.01591122.19789573-.04375584.00497225-.0019889.0099445-.00696116.01491676-.00994451.04972255-.02386682.09845064-.05171145.13922313-.09248393l31.30829737-31.31028628c.09347838.09248394.2187792.14518983.35004671.14518983.13226197 0 .25855723-.0527059.35203561-.14518983L84.0118887 32.62744015c1.31764743-1.31864188 1.31764743-3.46367245-.00099445-4.78131988zm-2.30812052-1.95310155l-.52507007.52507007L64.3416501 43.25414236l-.35203561.35203562-.35203562.35104116-.46838637.46838637-.35203561.35203562-1.07400696 1.07400696c-.70009343.70108787-1.92227357.70009342-2.62137255 0l-3.69836286-3.69836286c-.7229658-.7229658-.7229658-1.8974123 0-2.6203781l1.07400696-1.07400696.35203562-.35203561.46838637-.46838637.35104116-.35104117.35203562-.35203561 16.83505911-16.83605357.52507007-.52507007zm-27.6546848 9.41048878l2.10028028 2.10028028-.35203561.35203561-2.10028028-2.10028028c-.0974562-.09745619-.0974562-.25457943 0-.35203561.09745618-.0974562.25457942-.09646174.35203561 0zm11.2323228 11.93639403l-1.75918362-1.75918363.35203561-.35203561 1.93520144 1.93520143c.09745618.09745619.09745618.25457943 0 .35203562l-28.4810735 28.48107349c-.04872809.04872809-.1113785.07259491-.1760178.07259491s-.12728972-.02386682-.1760178-.07259491c-.0974562-.0974562-.0974562-.25457943 0-.35203562zM35.14357751 78.08080698c-.00497225.00497226-.01292786.00298335-.01889457.0079556-.02585572.02287238-.0566837.02685018-.08850612.0367947-.02386683.00696115-.0427614.02784462-.06762266.02784462-.00696116 0-.01193342-.00696116-.01790012-.00795561-.00696116-.00099445-.01292786.0059667-.01988902.00497225-.15314544-.02386682-.31921873-.04574474-.48529203-.06762266-3.21605418-.41667492-8.73525662-.3928081-11.25022292 2.1241471-.0487281.0487281-.1113785.07259492-.1760178.07259492-.06463932 0-.12728972-.02386682-.17601782-.07259492-.09745618-.09745618-.09745618-.25457942 0-.35203561 2.80136816-2.80136816 8.5433276-2.58457786 11.03939933-2.3349707.14419538.01392232.2714851.02883908.3928081.0427614L23.95302165 67.24129228c-.0974562-.09745619-.0974562-.25457943 0-.35203562.09745618-.09646173.25457942-.09646173.35104116 0l10.83852025 10.83852025c.00497226.00497226.00298335.01292787.0079556.01790012.02187793.02486127.02585573.0546948.03580024.08651723.0099445.03082798.02386682.0566837.02187792.08950058 0 .00696115.0059667.0119334.00497225.01988902-.0039778.02685017-.02784462.04176693-.03977803.06563375-.01193341.02486128-.00994451.05370035-.02983353.07358937zm34.20911062-60.11157295c.89997805-.9009725 2.47220491-.90196695 3.37516632 0l1.42703703 1.42703703-16.83505912 16.83605357-3.11462019-3.11462019zM20.20593069 82.69605356h-3.4587002l3.41693327-3.22599869.95268395.95268396-1.14262407 1.14262407c-.0974562.09745619-.0974562.25457943 0 .35203561.04872809.0487281.1113785.07259492.1760178.07259492.06463931 0 .12728972-.02386682.17601781-.07259492l1.14262407-1.14262407.32916325.32916325zm63.10188678-50.77268464L68.15934706 47.07283378l-.71302129-.71302129 14.90284104-14.90284104c.6702599-.66926545.64639308-1.782056-.05171145-2.48115497-.09745618-.09745618-.25457942-.09745618-.35203561 0-.09745619.09745619-.09745619.25457943 0 .35203562.5041866.5041866.52705897 1.30173621.05171144 1.77807819L67.09528461 46.00877133l-2.05055774-2.05055774 16.83605357-16.83605357 1.42803148 1.42703703c.92981158.92981158.92981158 2.44436029-.00099445 3.37417187zm-3.82863593-6.05322257L63.2179206 42.13140731l-.35203562.35203561-.35203561.35104117-.46838637.46838637-.35203562.35203561-.53402012.53402013c-.0974562.09745619-.0974562.25457943 0 .35203561.04872809.0487281.1113785.07259492.1760178.07259492.06463931 0 .12728972-.02386682.17601781-.07259492l.53402013-.53402012.35203561-.35203562.46838637-.46838637.35203562-.35104116.35203561-.35203562 16.43628431-16.4362843c.09745619-.0974562.09745619-.25457944 0-.35203562l-4.31193906-4.31193906c-.09745618-.09745619-.25457942-.09745619-.35203561 0s-.09745619.25457943 0 .35203561z"/></svg>