<?xml version="1.0" encoding="UTF-8" standalone="no"?>
<svg xmlns="http://www.w3.org/2000/svg" viewBox="0 0 100 100">
  <path d="M 50.210938 31.8125 C 43.923837 31.8125 39.004223 35.185195 37.451172 40.3125 C 36.642963 42.443164 36.220703 44.929833 36.220703 47.728516 L 36.220703 52.423828 C 36.220703 55.042681 36.583946 57.374309 37.28125 59.392578 C 38.617721 64.645318 43.68148 68.1875 50.214844 68.1875 C 50.267007 68.1875 50.317238 68.183974 50.369141 68.183594 C 50.421044 68.183974 50.471275 68.1875 50.523438 68.1875 C 57.056801 68.1875 62.12056 64.645318 63.457031 59.392578 C 64.154336 57.374309 64.517578 55.042681 64.517578 52.423828 L 64.517578 47.728516 C 64.517578 44.922211 64.093776 42.42943 63.28125 40.294922 C 61.722422 35.177261 56.807426 31.8125 50.527344 31.8125 C 50.47393 31.8125 50.422289 31.815987 50.369141 31.816406 C 50.315868 31.815985 50.264476 31.8125 50.210938 31.8125 z M 50.369141 36.839844 C 54.327913 36.909223 57.039639 39.262089 58.107422 43.40625 C 58.109025 43.421418 58.111759 43.43597 58.113281 43.451172 L 58.117188 43.451172 C 58.442558 44.731832 58.619141 46.174153 58.619141 47.78125 L 58.619141 52.419922 C 58.619141 59.214947 55.611978 63.100035 50.369141 63.1875 C 45.126304 63.100035 42.119141 59.214947 42.119141 52.419922 L 42.119141 47.78125 C 42.119141 46.174153 42.293771 44.731832 42.619141 43.451172 L 42.625 43.451172 C 42.627255 43.428648 42.632333 43.407216 42.634766 43.384766 C 43.706359 39.253842 46.417148 36.909104 50.369141 36.839844 z " />
  <path d="M 15,23.75 A 8.75,8.75 0 0 1 23.75,15 h 52.5 A 8.75,8.75 0 0 1 85,23.75 v 52.5 A 8.75,8.75 0 0 1 76.25,85 H 23.75 A 8.75,8.75 0 0 1 15,76.25 Z m 65.625,0 A 4.375,4.375 0 0 0 76.25,19.375 h -52.5 a 4.375,4.375 0 0 0 -4.375,4.375 v 52.5 a 4.375,4.375 0 0 0 4.375,4.375 h 52.5 a 4.375,4.375 0 0 0 4.375,-4.375 z" />
</svg>
