<svg xmlns="http://www.w3.org/2000/svg" viewBox="0 0 100 100">
	<path d="m 49.999735,18.087514 c -5.661241,0 -10.294164,4.632929 -10.294164,10.294171 0,5.661242 4.632923,10.294171 10.294164,10.294171 5.661255,0 10.294178,-4.632929 10.294178,-10.294171 0,-5.661242 -4.632923,-10.294171 -10.294178,-10.294171 z m 0,4.1173 c 3.435324,0 6.176883,2.740824 6.176883,6.176871 0,3.435313 -2.740831,6.176871 -6.176883,6.176871 -3.43531,0 -6.176869,-2.740824 -6.176869,-6.176871 0,-3.435312 2.740831,-6.176871 6.176869,-6.176871 z M 31.470239,34.557637 c -1.705405,0 -3.088447,1.382985 -3.088447,3.088435 l -6.337707,4.503699 7.28e-4,7.36e-4 c -0.542854,0.384156 -0.865972,1.00745 -0.868857,1.67238 V 63.381812 H 17.058648 C 15.942777,63.409822 15.025187,64.513474 15,65.440464 v 14.411471 c 0,1.07782 0.980869,2.05865 2.058648,2.05865 l 65.882704,0.0019 C 84.019171,81.912486 85,80.931618 85,79.853836 v -14.41152 c 0,-1.077818 -0.980869,-2.05865 -2.058648,-2.05865 H 68.52988 v -9.264387 c 0,-3.548731 -2.485863,-6.468967 -5.855181,-8.364013 -3.368405,-1.895046 -7.801697,-2.959942 -12.674514,-2.959942 -4.873557,0 -9.306122,1.064896 -12.674513,2.959942 -3.369133,1.89431 -5.855181,4.814547 -5.855181,8.363279 v 9.264386 h -6.176869 v -18.49642 l 5.85518,-4.182007 c 0.109193,0.01152 0.209664,0.03231 0.321689,0.03231 1.705392,0 3.088435,-1.382985 3.088435,-3.088434 0,-1.705395 -1.38299,-3.088436 -3.088435,-3.088436 z m 18.529496,12.352821 c 4.251689,0 8.06237,0.990208 10.648227,2.44505 2.585672,1.45409 3.764173,3.176671 3.764173,4.760687 v 9.264386 H 35.588448 v -9.264386 c 0,-1.584053 1.178355,-3.306635 3.764185,-4.760687 2.585817,-1.454051 6.396539,-2.44505 10.648214,-2.44505 z M 19.117229,67.498801 H 80.882255 V 77.792972 H 19.117229 Z"/>
</svg>
