<svg xmlns="http://www.w3.org/2000/svg" viewBox="0 0 100 100">
  <path d="m 63.125,32.504375 v 34.99125 H 57.30625 V 51.98625 H 42.69375 V 67.495625 H 36.875 v -34.99125 h 5.81875 v 14.53375 h 14.6125 v -14.53375 z" />
  <path d="M 15,23.75 A 8.75,8.75 0 0 1 23.75,15 h 52.5 A 8.75,8.75 0 0 1 85,23.75 v 52.5 A 8.75,8.75 0 0 1 76.25,85 H 23.75 A 8.75,8.75 0 0 1 15,76.25 Z m 65.625,0 A 4.375,4.375 0 0 0 76.25,19.375 h -52.5 a 4.375,4.375 0 0 0 -4.375,4.375 v 52.5 a 4.375,4.375 0 0 0 4.375,4.375 h 52.5 a 4.375,4.375 0 0 0 4.375,-4.375 z" />
</svg>
