<svg width="100%" height="100%" viewBox="0 0 100 100" version="1.1" xmlns="http://www.w3.org/2000/svg" xmlns:xlink="http://www.w3.org/1999/xlink" xml:space="preserve" xmlns:serif="http://www.serif.com/" style="fill-rule:evenodd;clip-rule:evenodd;stroke-linejoin:round;stroke-miterlimit:2;">
    <g transform="matrix(1.26219,0,0,1.21083,-20.5201,-17.9192)">
        <path d="M65.621,37.881L58.174,74.306L66.043,74.306C68.166,74.306 69.603,74.721 70.352,75.551C71.102,76.381 71.289,77.724 70.914,79.579C70.54,81.467 69.798,82.842 68.689,83.705C67.581,84.568 65.98,84.999 63.888,84.999L36.065,84.999C33.941,84.999 32.505,84.576 31.756,83.729C31.006,82.883 30.819,81.5 31.193,79.579C31.568,77.691 32.294,76.34 33.372,75.526C34.449,74.713 36.065,74.306 38.22,74.306L46.089,74.306L53.536,37.881L45.667,37.881C43.544,37.881 42.107,37.457 41.358,36.611C40.608,35.765 40.421,34.397 40.796,32.509C41.202,30.589 41.936,29.222 42.997,28.408C44.059,27.594 45.667,27.187 47.822,27.187L75.645,27.187C77.862,27.187 79.33,27.594 80.048,28.408C80.766,29.222 80.923,30.589 80.517,32.509C80.142,34.397 79.416,35.765 78.339,36.611C77.261,37.457 75.645,37.881 73.491,37.881L65.621,37.881Z" style="fill-rule:nonzero;"/>
    </g>
</svg>
