<svg xmlns="http://www.w3.org/2000/svg" viewBox="0 0 100 100"><path d="M 39.769761,31.311745 H 15.703514 L 15,40.529089 h 0.748991 c 0.538833,-6.903534 1.130722,-8.112117 7.593956,-8.112117 0.748991,0 1.965843,0 2.300719,0 0.795846,0.124717 0.795846,0.631164 0.795846,1.590314 v 22.687469 c 0,1.506251 -0.126095,1.965843 -3.636776,1.965843 h -1.183088 v 1.006694 c 1.999606,-0.03859 4.083276,-0.07924 6.12767,-0.07924 2.038192,0 4.128063,0.04065 6.126292,0.07924 v -1.006694 h -1.163107 c -3.458313,0 -3.58303,-0.459592 -3.58303,-1.965843 v -22.68678 c 0,-0.920563 0,-1.42012 0.750369,-1.590314 h 2.286938 c 6.377104,0 7.001378,1.201693 7.539522,8.112117 h 0.750369 m 20.22827,17.684319 H 59.93395 c -0.913672,6.180039 -1.452505,9.539128 -8.783246,9.539128 h -5.784526 c -1.664731,0 -1.743282,-0.210158 -1.743282,-1.644059 v -11.64967 h 3.931686 c 3.931686,0 4.306526,1.440791 4.306526,4.958362 h 0.669751 V 48.575747 h -0.669751 c 0,3.458312 -0.375529,4.872231 -4.306526,4.872231 H 43.622207 V 43.119206 c 0,-1.407028 0.07924,-1.617187 1.743282,-1.617187 h 5.698395 c 6.449454,0 7.199823,2.563245 7.784133,8.07353 h 0.751058 L 58.599272,40.357517 H 37.496604 v 1.144502 c 2.951865,0 3.42455,0 3.42455,1.873512 v 22.49178 c 0,1.873511 -0.466483,1.873511 -3.42455,1.873511 v 1.006692 h 21.688355 m 12.733537,-24.852446 6.166256,-8.914853 c 0.617384,-0.875086 1.873512,-2.676248 5.293238,-2.721725 v -1.006005 c -0.954326,0.07924 -2.53775,0.07924 -3.537553,0.07924 -1.373265,0 -3.083473,0 -4.121862,-0.07924 v 1.006695 c 1.334678,0.124716 1.662663,0.959148 1.662663,1.630966 0,0.498179 -0.203957,0.834435 -0.499557,1.248548 l -5.502018,7.980511 -6.166256,-9.02579 c -0.289399,-0.454079 -0.330052,-0.585687 -0.330052,-0.710405 0,-0.375529 0.45408,-1.085245 1.834235,-1.12452 v -1.006005 c -1.334678,0.07924 -3.372871,0.07924 -4.746136,0.07924 -1.079043,0 -3.162024,0 -4.168718,-0.07924 v 1.006695 c 2.289005,0 3.037996,0.08613 3.958559,1.380154 l 8.039768,11.808151 -7.250123,10.591298 c -1.788759,2.590117 -4.496702,2.635594 -5.293237,2.635594 v 1.006693 c 0.952259,-0.07924 2.537749,-0.07924 3.537552,-0.07924 1.124521,0 3.083473,0 4.121863,0.07924 v -1.006693 c -1.289202,-0.124716 -1.662664,-0.95915 -1.662664,-1.630968 0,-0.538832 0.203957,-0.834432 0.414116,-1.130721 l 6.666502,-9.729304 7.250123,10.656757 c 0.327985,0.460971 0.327985,0.585688 0.327985,0.710405 0,0.327985 -0.373462,1.04528 -1.832857,1.130721 v 1.006694 c 1.334678,-0.07924 3.372871,-0.07924 4.746136,-0.07924 1.079044,0 3.162024,0 4.173541,0.07924 v -1.006694 c -2.669357,0 -3.089674,-0.203957 -3.917905,-1.380155"/></svg>