<svg width="100%" height="100%" viewBox="0 0 100 100" version="1.1" xmlns="http://www.w3.org/2000/svg" xmlns:xlink="http://www.w3.org/1999/xlink" xml:space="preserve" xmlns:serif="http://www.serif.com/" style="fill-rule:evenodd;clip-rule:evenodd;stroke-linecap:round;stroke-linejoin:round;stroke-miterlimit:2;">
    <g transform="matrix(0.886076,0,0,0.886076,5.6962,5.6962)">
        <path d="M37.287,67C36.789,66.542 36.309,66.056 35.848,65.544C33.894,63.373 32.374,60.801 31.374,58L26.25,58C24.514,58 22.868,57.193 21.64,55.828C20.251,54.286 19.5,52.182 19.5,50C19.5,50 19.5,50 19.5,50C19.5,47.818 20.251,45.714 21.64,44.172C22.868,42.807 24.514,42 26.25,42L48.75,42C50.486,42 52.132,42.807 53.36,44.172C54.749,45.714 55.5,47.818 55.5,50C55.5,50 55.5,50 55.5,50C55.5,52.484 57.516,54.5 60,54.5C62.484,54.5 64.5,52.484 64.5,50C64.5,45.552 62.881,41.296 60.05,38.151C57.058,34.826 52.981,33 48.75,33C40.377,33 34.623,33 26.25,33C22.019,33 17.942,34.826 14.95,38.151C12.119,41.296 10.5,45.552 10.5,50L10.5,50C10.5,54.448 12.119,58.704 14.95,61.849C17.942,65.174 22.019,67 26.25,67L37.287,67Z" style="stroke:black;stroke-width:1.13px;"/>
    </g>
    <g transform="matrix(0.886076,0,0,0.886076,5.6962,5.6962)">
        <path d="M62.683,33C63.186,33.463 63.672,33.954 64.138,34.472C66.089,36.639 67.608,39.206 68.611,42L73.798,42C75.521,42 77.155,42.802 78.374,44.156C79.754,45.689 80.5,47.779 80.5,49.947C80.5,49.982 80.5,50.018 80.5,50.053C80.5,52.221 79.754,54.311 78.374,55.844C77.155,57.198 75.521,58 73.798,58C65.405,58 59.595,58 51.202,58C49.479,58 47.845,57.198 46.626,55.844C45.246,54.311 44.5,52.221 44.5,50.053C44.5,50.018 44.5,49.982 44.5,49.947C44.5,47.463 42.484,45.447 40,45.447C37.516,45.447 35.5,47.463 35.5,49.947C35.5,49.982 35.5,50.018 35.5,50.053C35.5,54.487 37.114,58.729 39.936,61.865C42.919,65.179 46.984,67 51.202,67C59.595,67 65.405,67 73.798,67C78.016,67 82.081,65.179 85.064,61.865C87.886,58.729 89.5,54.487 89.5,50.053C89.5,50.018 89.5,49.982 89.5,49.947C89.5,45.513 87.886,41.271 85.064,38.135C82.081,34.821 78.016,33 73.798,33L62.683,33Z" style="stroke:black;stroke-width:1.13px;"/>
    </g>
</svg>
