<svg width="100%" height="100%" viewBox="0 0 100 100" version="1.1" xmlns="http://www.w3.org/2000/svg" xmlns:xlink="http://www.w3.org/1999/xlink" xml:space="preserve" xmlns:serif="http://www.serif.com/" style="fill-rule:evenodd;clip-rule:evenodd;stroke-linecap:round;stroke-linejoin:round;stroke-miterlimit:1.5;">
    <g transform="matrix(1,0,0,1,0.00463679,-3)">
        <g transform="matrix(0.952381,0,0,1,3.80952,-5)">
            <path d="M38,33L80,33" style="fill:none;stroke:black;stroke-width:10.24px;"/>
        </g>
        <g transform="matrix(0.833952,0,0,0.833952,6.23145,9.23609)">
            <rect x="15" y="15" width="15" height="15" style="stroke:black;stroke-width:1.2px;"/>
        </g>
    </g>
    <g transform="matrix(1,0,0,1,0.00463679,0)">
        <g transform="matrix(0.952381,0,0,1,3.80952,17)">
            <path d="M38,33L80,33" style="fill:none;stroke:black;stroke-width:10.24px;"/>
        </g>
        <g transform="matrix(0.833952,0,0,0.833952,6.23145,31.2361)">
            <rect x="15" y="15" width="15" height="15" style="stroke:black;stroke-width:1.2px;"/>
        </g>
    </g>
    <g transform="matrix(1,0,0,1,0.00463679,2)">
        <g transform="matrix(0.952381,0,0,1,3.80952,40)">
            <path d="M38,33L80,33" style="fill:none;stroke:black;stroke-width:10.24px;"/>
        </g>
        <g transform="matrix(0.833952,0,0,0.833952,6.23145,54.2361)">
            <rect x="15" y="15" width="15" height="15" style="stroke:black;stroke-width:1.2px;"/>
        </g>
    </g>
</svg>
