<svg width="100%" height="100%" viewBox="0 0 100 100" version="1.1" xmlns="http://www.w3.org/2000/svg" xmlns:xlink="http://www.w3.org/1999/xlink" xml:space="preserve" xmlns:serif="http://www.serif.com/" style="fill-rule:evenodd;clip-rule:evenodd;stroke-linecap:round;stroke-linejoin:round;stroke-miterlimit:1.5;">
    <g transform="matrix(1,0,0,1,0,-3)">
        <g transform="matrix(0.952381,0,0,1,3.80952,-5)">
            <path d="M38,33L80,33" style="fill:none;stroke:black;stroke-width:10.24px;"/>
        </g>
        <g transform="matrix(1.31687,0,0,1.31687,-4.5216,-17.0453)">
            <path d="M23.977,39.304L25.875,39.304C26.398,39.304 26.777,39.402 27.012,39.597C27.246,39.792 27.363,40.112 27.363,40.558C27.363,40.995 27.25,41.312 27.023,41.507C26.797,41.702 26.414,41.8 25.875,41.8L18.961,41.8C18.422,41.8 18.039,41.702 17.813,41.507C17.586,41.312 17.473,40.995 17.473,40.558C17.473,40.112 17.588,39.792 17.818,39.597C18.049,39.402 18.43,39.304 18.961,39.304L21.141,39.304L21.141,29.413L19.828,29.753C19.625,29.8 19.457,29.835 19.324,29.859C19.191,29.882 19.094,29.894 19.031,29.894C18.711,29.894 18.463,29.792 18.287,29.589C18.111,29.386 18.023,29.097 18.023,28.722C18.023,28.448 18.121,28.218 18.316,28.03C18.512,27.843 18.813,27.698 19.219,27.597L22.125,26.8C22.367,26.737 22.566,26.691 22.723,26.659C22.879,26.628 23.008,26.612 23.109,26.612C23.422,26.612 23.645,26.698 23.777,26.87C23.91,27.042 23.977,27.331 23.977,27.737L23.977,39.304Z" style="fill-rule:nonzero;"/>
        </g>
    </g>
    <g>
        <g transform="matrix(0.952381,0,0,1,3.80952,17)">
            <path d="M38,33L80,33" style="fill:none;stroke:black;stroke-width:10.24px;"/>
        </g>
        <g transform="matrix(1.31891,0,0,1.31891,-5.04379,-28.103)">
            <path d="M21.637,64.163L25.738,64.163L25.738,64.093C25.738,63.695 25.846,63.398 26.061,63.202C26.275,63.007 26.594,62.909 27.016,62.909C27.359,62.909 27.625,63.005 27.813,63.196C28,63.388 28.094,63.659 28.094,64.011L28.094,64.163L28,65.98C27.984,66.339 27.928,66.566 27.83,66.659C27.732,66.753 27.559,66.8 27.309,66.8L18.883,66.8C18.43,66.8 18.08,66.702 17.834,66.507C17.588,66.312 17.465,66.034 17.465,65.675C17.465,65.378 17.541,65.087 17.693,64.802C17.846,64.517 18.09,64.214 18.426,63.894L23.195,59.288C23.711,58.788 24.096,58.288 24.35,57.788C24.604,57.288 24.73,56.788 24.73,56.288C24.73,55.585 24.561,55.062 24.221,54.718C23.881,54.374 23.363,54.202 22.668,54.202C22.262,54.202 21.9,54.263 21.584,54.384C21.268,54.505 21.023,54.675 20.852,54.894C20.758,55.003 20.645,55.171 20.512,55.398C20.137,56.007 19.723,56.312 19.27,56.312C18.879,56.312 18.584,56.183 18.385,55.925C18.186,55.667 18.086,55.284 18.086,54.777C18.086,54.253 18.148,53.862 18.273,53.605C18.398,53.347 18.648,53.089 19.023,52.831C19.633,52.425 20.275,52.124 20.951,51.929C21.627,51.734 22.359,51.636 23.148,51.636C24.625,51.636 25.795,52.034 26.658,52.831C27.521,53.628 27.953,54.698 27.953,56.042C27.953,56.941 27.729,57.802 27.279,58.626C26.83,59.45 26.133,60.273 25.188,61.093L21.637,64.163Z" style="fill-rule:nonzero;"/>
        </g>
    </g>
    <g transform="matrix(1,0,0,1,0,2)">
        <g transform="matrix(0.952381,0,0,1,3.80952,40)">
            <path d="M38,33L80,33" style="fill:none;stroke:black;stroke-width:10.24px;"/>
        </g>
        <g transform="matrix(1.28417,0,0,1.28417,-4.35791,-34.1297)">
            <path d="M25.34,82.761C26.238,83.042 26.906,83.486 27.344,84.091C27.781,84.696 28,85.484 28,86.452C28,87.913 27.506,89.071 26.518,89.927C25.529,90.782 24.184,91.21 22.48,91.21C21.105,91.21 19.969,90.984 19.07,90.53C18.172,90.077 17.723,89.527 17.723,88.878C17.723,88.495 17.846,88.185 18.092,87.946C18.338,87.708 18.664,87.589 19.07,87.589C19.266,87.589 19.762,87.765 20.559,88.116C21.355,88.468 22.059,88.644 22.668,88.644C23.402,88.644 23.967,88.446 24.361,88.052C24.756,87.657 24.953,87.093 24.953,86.359C24.953,85.57 24.787,85.007 24.455,84.671C24.123,84.335 23.488,84.148 22.551,84.109C22.059,84.093 21.729,83.997 21.561,83.821C21.393,83.646 21.309,83.331 21.309,82.878C21.309,82.253 21.645,81.894 22.316,81.8C22.41,81.792 22.48,81.784 22.527,81.777C23.371,81.659 23.918,81.458 24.168,81.173C24.418,80.888 24.543,80.425 24.543,79.784C24.543,79.23 24.393,78.798 24.092,78.489C23.791,78.181 23.367,78.027 22.82,78.027C22.242,78.027 21.594,78.208 20.875,78.571C20.156,78.935 19.66,79.116 19.387,79.116C19.082,79.116 18.838,79.017 18.654,78.818C18.471,78.618 18.379,78.366 18.379,78.062C18.379,77.398 18.84,76.827 19.762,76.351C20.684,75.874 21.82,75.636 23.172,75.636C24.531,75.636 25.615,75.988 26.424,76.691C27.232,77.394 27.637,78.327 27.637,79.491C27.637,80.257 27.451,80.904 27.08,81.431C26.709,81.958 26.129,82.402 25.34,82.761Z" style="fill-rule:nonzero;"/>
        </g>
    </g>
</svg>
