<svg xmlns="http://www.w3.org/2000/svg" viewBox="0 0 100 100"><path d="m 41.25,67.5 q -1.36719,0 -2.56348,-0.512695 -1.19629,-0.512696 -2.08496,-1.401368 -0.88867,-0.888671 -1.40136,-2.08496 -0.5127,-1.19629 -0.5127,-2.563477 v -39.375 q 0,-1.367188 0.5127,-2.563477 0.51269,-1.196289 1.40136,-2.084961 0.88867,-0.888671 2.08496,-1.401367 Q 39.88281,15 41.25,15 h 17.5 q 1.36719,0 2.56348,0.512695 1.19629,0.512696 2.08496,1.401367 0.88867,0.888672 1.40136,2.084961 0.5127,1.196289 0.5127,2.563477 v 39.375 q 0,1.367187 -0.5127,2.563477 -0.51269,1.196289 -1.40136,2.08496 -0.88867,0.888672 -2.08496,1.401368 Q 60.11719,67.5 58.75,67.5 Z m -2.1875,-6.5625 q 0,0.888672 0.64941,1.538086 Q 40.36133,63.125 41.25,63.125 h 17.5 q 0.88867,0 1.53809,-0.649414 0.64941,-0.649414 0.64941,-1.538086 v -39.375 q 0,-0.888672 -0.64941,-1.538086 Q 59.63867,19.375 58.75,19.375 h -17.5 q -0.88867,0 -1.53809,0.649414 Q 39.0625,20.673828 39.0625,21.5625 Z M 74.0625,50 v 12.373047 q 0,2.871094 -1.09375,5.40039 -1.09375,2.529297 -2.97363,4.40918 Q 68.11523,74.0625 65.58594,75.15625 63.05664,76.25 60.18555,76.25 H 52.1875 v 4.375 h 8.75 V 85 h -21.875 v -4.375 h 8.75 V 76.25 h -7.99805 q -2.87109,0 -5.40039,-1.09375 Q 31.88477,74.0625 30.00488,72.182617 28.125,70.302734 27.03125,67.773437 25.9375,65.244141 25.9375,62.373047 V 50 h 4.375 q 0,1.879883 -0.11963,4.238281 -0.11963,2.358399 -0.0513,4.802246 0.0684,2.443848 0.46143,4.750977 0.39306,2.307129 1.45263,4.101562 1.05957,1.794434 2.92237,2.888184 1.86279,1.09375 4.83642,1.09375 h 20.3711 q 2.97363,0 4.83642,-1.09375 1.8628,-1.09375 2.92237,-2.888184 1.05957,-1.794433 1.45263,-4.101562 0.39307,-2.307129 0.46143,-4.750977 0.0684,-2.443847 -0.0513,-4.785156 Q 69.6875,51.914062 69.6875,50 Z"/></svg>