<svg xmlns="http://www.w3.org/2000/svg" viewBox="0 0 24 24" fill="none">
  <path d="M 9.079 19.67 A 0.365 0.365 0 0 0 8.713 20.035 A 0.365 0.365 0 0 0 9.079 20.4 H 14.921 A 0.365 0.365 0 0 0 15.287 20.035 A 0.365 0.365 0 0 0 14.921 19.67 Z M 6.887 10.175 A 0.365 0.365 0 0 0 6.522 10.54 V 12 C 6.506 14.447 7.996 16.312 9.912 17.102 C 11.828 17.892 14.2 17.62 15.912 15.872 A 0.365 0.365 0 0 0 15.907 15.356 A 0.365 0.365 0 0 0 15.391 15.36 C 13.885 16.897 11.859 17.116 10.19 16.427 C 8.52 15.739 7.237 14.155 7.253 12.004 A 0.365 0.365 0 0 0 7.253 12.001 V 10.541 A 0.365 0.365 0 0 0 6.887 10.175 Z M 17.113 10.175 A 0.365 0.365 0 0 0 16.747 10.54 V 12 C 16.747 12.28 16.723 12.56 16.673 12.835 A 0.365 0.365 0 0 0 16.967 13.259 A 0.365 0.365 0 0 0 17.392 12.964 C 17.449 12.646 17.477 12.324 17.478 12.001 V 10.541 A 0.365 0.365 0 0 0 17.113 10.175 Z M 12.257 3.613 C 11.082 3.494 9.793 4.18 9.495 5.647 A 0.365 0.365 0 0 0 9.78 6.078 A 0.365 0.365 0 0 0 10.211 5.793 C 10.439 4.669 11.321 4.252 12.184 4.339 C 13.048 4.426 13.827 5.012 13.826 6.158 V 10.058 A 0.365 0.365 0 0 0 14.191 10.423 A 0.365 0.365 0 0 0 14.556 10.058 V 6.158 C 14.558 4.66 13.431 3.732 12.256 3.613 Z M 9.809 9.445 A 0.365 0.365 0 0 0 9.444 9.81 V 12 A 2.539 2.539 0 0 0 11.021 14.36 A 2.54 2.54 0 0 0 13.806 13.808 A 0.365 0.365 0 0 0 13.807 13.292 A 0.365 0.365 0 0 0 13.291 13.29 C 12.705 13.876 11.941 13.95 11.301 13.686 C 10.661 13.421 10.175 12.829 10.174 12.001 V 9.81 A 0.365 0.365 0 0 0 9.809 9.445 Z M 3.949 3.602 A 0.365 0.365 0 0 0 3.708 3.709 A 0.365 0.365 0 0 0 3.708 4.225 L 19.776 20.293 A 0.365 0.365 0 0 0 20.292 20.293 A 0.365 0.365 0 0 0 20.292 19.777 L 4.224 3.709 A 0.365 0.365 0 0 0 3.949 3.602 Z M 12 16.748 A 0.365 0.365 0 0 0 11.635 17.113 V 20.035 A 0.365 0.365 0 0 0 12 20.4 A 0.365 0.365 0 0 0 12.365 20.035 V 17.113 A 0.365 0.365 0 0 0 12 16.748 Z" color="#000" font-weight="400" font-family="sans-serif" overflow="visible" fill="#d74417" stroke="none"/>
</svg>