<svg xmlns="http://www.w3.org/2000/svg" viewBox="0 0 100 100">
  <path d="M25.77 15c-6.144-.168-11.393 5.687-10.77 11.76.01 16.007-.019 32.015.014 48.022C15.168 80.81 21.026 85.66 26.957 85c15.942-.01 31.884.019 47.825-.014C80.81 84.832 85.66 78.974 85 73.043c-.01-15.942.019-31.884-.014-47.825C84.832 19.19 78.974 14.34 73.043 15H25.769zm0 5.385c16.34.018 32.681-.037 49.02.027 3.247.19 5.269 3.509 4.825 6.545-.018 15.944.037 31.89-.027 47.834-.19 3.246-3.509 5.268-6.545 4.824-15.944-.018-31.89.037-47.834-.027-3.246-.19-5.268-3.509-4.824-6.545.018-15.944-.037-31.89.027-47.834.195-2.701 2.655-4.899 5.357-4.824zm40.397 13.461c-2.154.011-3.008 2.43-4.367 3.69L43.468 59.359c-2.737-2.942-5.296-6.075-8.134-8.91-1.705-1.257-4.378.255-4.177 2.364.166 1.95 2.185 2.988 3.205 4.476 2.59 2.776 4.997 5.747 7.688 8.416 1.44 1.022 3.4.172 4.187-1.27 7.409-8.87 14.923-17.665 22.267-26.583 1.019-1.73-.33-4.042-2.337-4.006z" />
</svg>
