<svg xmlns="http://www.w3.org/2000/svg" viewBox="0 0 100 100"><path d="M 79.999935,24.999978 C 79.999935,19.485927 75.514005,15 69.999955,15 c -5.51405,0 -9.99998,4.485927 -9.99998,9.999978 0,3.693273 2.01406,6.922953 4.99999,8.654824 v 8.254982 L 49.999998,49.409767 35.000032,41.909784 V 33.654802 C 37.985962,31.922931 40.00002,28.693251 40.00002,24.999978 40.00002,19.485927 35.514093,15 30.000043,15 c -5.514051,0 -9.999978,4.485927 -9.999978,9.999978 0,3.693273 2.014058,6.922953 4.999989,8.654824 v 14.435437 l 19.999955,9.999977 v 8.254982 c -2.985931,1.731871 -4.999989,4.961551 -4.999989,8.654824 0,5.514051 4.485928,9.999978 9.999978,9.999978 5.51405,0 9.999977,-4.485927 9.999977,-9.999978 0,-3.693273 -2.01406,-6.922953 -4.999988,-8.654824 V 58.090216 L 74.999945,48.090239 V 33.654802 c 2.98593,-1.731871 4.99999,-4.961551 4.99999,-8.654824 z M 30.000043,19.999989 c 2.7614,0 4.999989,2.238589 4.999989,4.999989 0,2.7614 -2.238589,4.999989 -4.999989,4.999989 -2.7614,0 -4.999989,-2.238589 -4.999989,-4.999989 0,-2.7614 2.238589,-4.999989 4.999989,-4.999989 z m 19.999955,59.999866 c -2.7614,0 -4.999989,-2.238589 -4.999989,-4.999989 0,-2.7614 2.238589,-4.999989 4.999989,-4.999989 2.7614,0 4.999989,2.238589 4.999989,4.999989 0,2.7614 -2.238589,4.999989 -4.999989,4.999989 z M 69.999955,29.999967 c -2.7614,0 -4.99999,-2.238589 -4.99999,-4.999989 0,-2.7614 2.23859,-4.999989 4.99999,-4.999989 2.7614,0 4.99999,2.238589 4.99999,4.999989 0,2.7614 -2.23859,4.999989 -4.99999,4.999989 z"/></svg>