<svg xmlns="http://www.w3.org/2000/svg" viewBox="0 0 100 100"><path d="m 84.598242,54.3863 -8.80153,15.08828 a 7.7774146,7.7774146 0 0 1 -6.718178,3.85876 H 20.471789 c -2.251059,0 -3.653612,-2.44186 -2.519393,-4.38631 l 8.80153,-15.088282 a 7.7777792,7.7777792 0 0 1 6.7183,-3.85875 h 48.606745 c 2.251059,0 3.653611,2.441858 2.519271,4.386302 z M 33.472226,46.111108 h 39.861118 v -5.833334 c 0,-3.221702 -2.611632,-5.833335 -5.833334,-5.833335 H 48.055562 L 40.277782,26.66666 H 20.833334 C 17.611632,26.66666 15,29.278292 15,32.499994 V 66.29031 l 8.394776,-14.391076 c 2.082622,-3.570244 5.944168,-5.788126 10.07745,-5.788126 z"/></svg>