<svg xmlns="http://www.w3.org/2000/svg" viewBox="0 0 100 100"><path d="m 49.875,18 a 1.0001,1.0001 0 0 0 -0.59375,0.28125 l -9,9 A 1.0001,1.0001 0 0 0 41,29 h 18 a 1.0001,1.0001 0 0 0 0.71875,-1.71875 l -9,-9 A 1.0001,1.0001 0 0 0 49.875,18 Z M 50,20.4375 56.5625,27 H 43.4375 Z M 27.875,40 a 1.0001,1.0001 0 0 0 -0.59375,0.28125 l -9,9 a 1.0001,1.0001 0 0 0 0,1.4375 l 9,9 A 1.0001,1.0001 0 0 0 29,59 V 41 a 1.0001,1.0001 0 0 0 -1.125,-1 z m 44,0 A 1.0001,1.0001 0 0 0 71,41 v 18 a 1.0001,1.0001 0 0 0 1.71875,0.71875 l 9,-9 a 1.0001,1.0001 0 0 0 0,-1.4375 l -9,-9 A 1.0001,1.0001 0 0 0 71.875,40 Z M 27,43.4375 v 13.125 L 20.4375,50 Z m 46,0 L 79.5625,50 73,56.5625 Z M 50,44 c -3.301865,0 -6,2.69812 -6,6 0,3.3018 2.69813,6 6,6 3.30187,0 6,-2.6982 6,-6 0,-3.30188 -2.698135,-6 -6,-6 z m 0,2 c 2.220983,0 4,1.779 4,4 0,2.221 -1.779022,4 -4,4 -2.220978,0 -4,-1.779 -4,-4 0,-2.221 1.779017,-4 4,-4 z m -9.1875,25 a 1.0001,1.0001 0 0 0 -0.53125,1.71875 l 9,9 a 1.0001,1.0001 0 0 0 1.4375,0 l 9,-9 A 1.0001,1.0001 0 0 0 59,71 H 41 a 1.0001,1.0001 0 0 0 -0.09375,0 1.0001,1.0001 0 0 0 -0.09375,0 z m 2.625,2 h 13.125 L 50,79.5625 Z" transform="matrix(.93681 0 0 .93681 3.1593075 3.15285044)"/></svg>