<svg xmlns="http://www.w3.org/2000/svg" viewBox="0 0 100 100">
	<path d="m 80.625,76.25 c 0,0 4.375,0 4.375,-4.375 0,-4.375 -4.375,-17.5 -21.875,-17.5 -17.5,0 -21.875,13.125 -21.875,17.5 0,4.375 4.375,4.375 4.375,4.375 z M 45.72125,71.875 A 1.141875,1.141875 0 0 1 45.625,71.8575 c 0.0044,-1.155 0.730625,-4.50625 3.325,-7.525 2.415,-2.830625 6.65875,-5.5825 14.175,-5.5825 7.511875,0 11.755625,2.75625 14.175,5.5825 2.594375,3.01875 3.31625,6.374375 3.325,7.525 L 80.59,71.8662 A 1.19875,1.19875 0 0 1 80.52875,71.875 Z M 63.125,45.625 a 8.75,8.75 0 1 0 0,-17.5 8.75,8.75 0 0 0 0,17.5 z m 13.125,-8.75 a 13.125,13.125 0 1 1 -26.25,0 13.125,13.125 0 0 1 26.25,0 z M 45.345,55.6 A 25.725,25.725 0 0 0 39.96375,54.519375 32.15625,32.15625 0 0 0 36.875,54.375 C 19.375,54.375 15,67.5 15,71.875 c 0,2.918125 1.456875,4.375 4.375,4.375 H 37.82 a 9.79125,9.79125 0 0 1 -0.945,-4.375 c 0,-4.41875 1.649375,-8.93375 4.76875,-12.705 1.063125,-1.28625 2.30125,-2.489375 3.70125,-3.57 z m -8.82,3.15 A 24.031875,24.031875 0 0 0 32.5,71.875 H 19.375 c 0,-1.1375 0.7175,-4.50625 3.325,-7.5425 2.384375,-2.7825 6.5275,-5.495 13.825,-5.578125 z M 21.5625,39.0625 a 13.125,13.125 0 1 1 26.25,0 13.125,13.125 0 0 1 -26.25,0 z m 13.125,-8.75 a 8.75,8.75 0 1 0 0,17.5 8.75,8.75 0 0 0 0,-17.5 z"/>
</svg>