<svg xmlns="http://www.w3.org/2000/svg" viewBox="0 0 100 100"><path d="M47.82442065 44.41309845l7.7615959 7.7615959c-4.7172975 4.7179975-26.6839859 26.6846859-27.91178525 27.91248525-1.37619927 1.37619927-1.99009895.60409968-1.99009895.60409968l-6.37629663-6.37629663s-.5704997-.81479957.60409968-1.99009895c1.04929945-1.04859945 23.17558775-23.17488775 27.91248525-27.91178525zM83.71480168 24.487609c1.36149928-1.36149929 2.0796989-5.8890969-.11689994-8.08499573-2.19659884-2.19659884-6.72349645-1.47979922-8.08639572-.11759994l-.07559996.07559996 8.20259566 8.20259567zm-9.94349474-7.33949613l-23.8307874 23.8307874c-.5872997.5872997-.94289951 1.31739931-1.07239944 2.07759891l8.07519573 8.07519573c.7608996-.13019993 1.49029921-.48509974 2.0782989-1.07239943l23.8293874-23.8307874zM15.07283796 84.40127732s-.15959991.3800998-.0063.53269971c.15259992.15259992.53199972-.007.53199972-.007l2.41779873-1.1346994-1.80809905-1.80809904zM16.5267372 79.31858c-.63349966 1.28869932-.15259992 1.86269902-.15259992 1.86269902l2.44439871 2.4443987s.5704997.3828998 1.81019904-.20509989c1.23969935-.58939968 4.1544978-2.37789874 4.1544978-2.37789874l-5.82609691-5.82609692c0-.0007-1.79689905 2.81329851-2.43039872 4.10199783zm60.99236776-45.55597592s6.36859664.22959988-17.09049096 17.09119097c0 0 1.5266992.97369948 2.95469844.11339994 1.42869924-.85959955 24.67848695-14.2043925 20.56878912-23.6375875z"/></svg>