<?xml version="1.0" encoding="UTF-8" standalone="no"?>
<svg viewBox="0 0 100 100" version="1.1" xmlns="http://www.w3.org/2000/svg">
  <path d="m 50,80.625 a 30.625,30.625 0 1 1 0,-61.25 30.625,30.625 0 0 1 0,61.25 z M 50,85 a 35,35 0 1 0 0,-70 35,35 0 0 0 0,70 z" />
  <path d="m 41.340634,37.115775 a 2.1875,2.1875 0 0 1 2.275,0.16625 l 15.3125,10.9375 a 2.1875,2.1875 0 0 1 0,3.56125 l -15.3125,10.9375 A 2.1875,2.1875 0 0 1 40.155009,60.93765 v -21.875 a 2.1875,2.1875 0 0 1 1.185625,-1.946875 z" />
</svg>
