<svg xmlns="http://www.w3.org/2000/svg" viewBox="0 0 100 100"><path d="m 68.987499,33.673955 c -8.837497,0 -16.012497,7.27709 -16.012497,16.30417 0,5.89167 3.062499,11.1125 7.656249,13.88333 H 39.368752 c 4.59375,-2.77083 7.656249,-7.99166 7.656249,-13.88333 0,-9.02708 -7.174998,-16.31875 -16.012498,-16.31875 -8.837502,0 -16.012502,7.32083 -16.012502,16.33333 0,9.02709 7.175,16.34792 16.012502,16.34792 h 37.974996 c 8.8375,0 16.0125,-7.30625 16.0125,-16.33333 0,-9.02709 -7.175,-16.33333 -16.0125,-16.33334 z m -37.654163,25.66667 c -5.147917,0 -9.333335,-4.18542 -9.333335,-9.33333 0,-5.14792 4.185418,-9.33334 9.333335,-9.33334 5.147916,0 9.333332,4.18542 9.333332,9.33334 0,5.14791 -4.185416,9.33333 -9.333332,9.33333 z m 37.333333,0 c -5.147917,0 -9.333334,-4.18542 -9.333334,-9.33333 0,-5.14792 4.185417,-9.33334 9.333334,-9.33334 5.14792,0 9.33333,4.18542 9.33333,9.33334 0,5.14791 -4.18541,9.33333 -9.33333,9.33333 z M 31.333336,43.007295 c -3.864585,0 -7.000001,3.13541 -7.000001,7 0,3.86458 3.135416,7 7.000001,7 3.864583,0 7,-3.13542 7,-7 0,-3.86459 -3.135417,-7 -7,-7 z m 37.333333,0 c -3.864585,0 -7.000001,3.13541 -7.000001,7 0,3.86458 3.135416,7 7.000001,7 3.86458,0 7,-3.13542 7,-7 0,-3.86459 -3.13542,-7 -7,-7 z"/></svg>