<svg xmlns="http://www.w3.org/2000/svg" viewBox="0 0 100 100"><path d="m 54.375778,36.872667 h 8.751555 v 26.254666 h -8.751555 z m -17.503111,0 h 8.751555 V 63.127333 H 36.872667 Z M 50,15 C 30.692444,15 15,30.692444 15,50 15,69.307556 30.692444,85 50,85 69.307556,85 85,69.307556 85,50 85,30.692444 69.307556,15 50,15 Z m 0,4.363333 C 66.943111,19.363333 80.636667,33.056889 80.636667,50 80.636667,66.943111 66.943111,80.636667 50,80.636667 33.056889,80.636667 19.363333,66.943111 19.363333,50 19.363333,33.056889 33.056889,19.363333 50,19.363333 Z"/></svg>