<svg xmlns="http://www.w3.org/2000/svg" viewBox="0 0 100 100"><path fill="#d74417" color="#000" overflow="visible" d="M 50,15 C 30.692444,15 15,30.692444 15,50 15,69.307556 30.692444,85 50,85 69.307556,85 85,69.307556 85,50 85,30.692444 69.307556,15 50,15 Z m 0,4.363333 C 66.943111,19.363333 80.636667,33.056889 80.636667,50 80.636667,66.943111 66.943111,80.636667 50,80.636667 33.056889,80.636667 19.363333,66.943111 19.363333,50 19.363333,33.056889 33.056889,19.363333 50,19.363333 Z M 65.316,50 c 0,8.459111 -6.856889,15.316 -15.316,15.316 -8.459111,0 -15.316,-6.856889 -15.316,-15.316 0,-8.457556 6.856889,-15.316 15.316,-15.316 8.459111,0 15.316,6.858444 15.316,15.316 z" style="text-indent:0;text-transform:none"/></svg>