<svg xmlns="http://www.w3.org/2000/svg" viewBox="0 0 100 100"><path d="m 68.9875,33.673955 c -8.8375,0 -16.0125,7.27709 -16.0125,16.30417 0,5.89167 3.0625,11.1125 7.65625,13.88333 h -21.2625 c 4.59375,-2.77083 7.65625,-7.99166 7.65625,-13.88333 0,-9.02708 -7.175,-16.31875 -16.0125,-16.31875 -8.8375,0 -16.0125,7.32083 -16.0125,16.33333 0,9.02709 7.175,16.34792 16.0125,16.34792 h 37.975 C 77.825,66.340625 85,59.034375 85,50.007295 85,40.980205 77.825,33.673955 68.9875,33.673955 Z M 31.333333,59.340625 C 26.185417,59.340625 22,55.155205 22,50.007295 c 0,-5.14792 4.185417,-9.33334 9.333333,-9.33334 5.147917,0 9.333334,4.18542 9.333334,9.33334 0,5.14791 -4.185417,9.33333 -9.333334,9.33333 z m 37.333334,0 c -5.147917,0 -9.333334,-4.18542 -9.333334,-9.33333 0,-5.14792 4.185417,-9.33334 9.333334,-9.33334 5.147916,0 9.333333,4.18542 9.333333,9.33334 0,5.14791 -4.185417,9.33333 -9.333333,9.33333 z M 31.333333,43.007295 c -3.864583,0 -7,3.13541 -7,7 0,3.86458 3.135417,7 7,7 3.864584,0 7,-3.13542 7,-7 0,-3.86459 -3.135416,-7 -7,-7 z m 37.333334,0 c -3.864584,0 -7,3.13541 -7,7 0,3.86458 3.135416,7 7,7 3.864583,0 7,-3.13542 7,-7 0,-3.86459 -3.135417,-7 -7,-7 z"/></svg>