<svg xmlns="http://www.w3.org/2000/svg" viewBox="0 0 100 100"><path fill="#bb00f5" color="#000" overflow="visible" d="M 50,15 C 30.692445,15 15,30.692445 15,50 15,69.307555 30.692445,85 50,85 69.307555,85 85,69.307555 85,50 85,30.692445 69.307555,15 50,15 Z m 0,4.363333 C 66.943111,19.363333 80.636669,33.056889 80.636669,50 80.636669,66.943111 66.943111,80.636669 50,80.636669 33.056889,80.636669 19.363333,66.943111 19.363333,50 19.363333,33.056889 33.056889,19.363333 50,19.363333 Z M 65.316,50 c 0,8.459111 -6.856889,15.316 -15.316,15.316 -8.459111,0 -15.316,-6.856889 -15.316,-15.316 0,-8.457555 6.856889,-15.316 15.316,-15.316 8.459111,0 15.316,6.858445 15.316,15.316 z" style="text-indent:0;text-transform:none"/></svg>