<svg xmlns="http://www.w3.org/2000/svg" viewBox="0 0 100 100"><path d="m 58.54,22 a 5,5 0 0 0 0,-7.07 L 45.1,1.46 a 5,5 0 0 0 -7.07,0 L 11.25,28.25 1.46,38 a 5,5 0 0 0 0,7.07 L 14.9,58.54 A 5,5 0 0 0 17.61,59.92 1,1 0 0 0 18,60 h 32.21 a 1,1 0 0 0 0,-2 H 22.5 l 2,-2 H 45 a 1,1 0 0 0 0,-2 H 26.51 l 2,-2 H 45 a 1,1 0 0 0 0,-2 H 30.51 l 1.25,-1.24 z M 41.29,5.29 a 1,1 0 0 1 1.42,0 l 12,12 a 1,1 0 0 1 0,1.42 1,1 0 0 1 -1.42,0 l -12,-12 a 1,1 0 0 1 0,-1.42 z M 20.55,57.12 a 3.06,3.06 0 0 1 -4.23,0 L 2.88,43.68 a 3,3 0 0 1 0,-4.23 L 12,30.37 29.63,48 Z" transform="matrix(1.16651 0 0 1.16651 15.004586 15.00688)" data-name="Desktop Pencil Sharpener"/></svg>