<svg width="100%" height="100%" viewBox="0 0 100 100" version="1.1" xmlns="http://www.w3.org/2000/svg" xmlns:xlink="http://www.w3.org/1999/xlink" xml:space="preserve" xmlns:serif="http://www.serif.com/" style="fill-rule:evenodd;clip-rule:evenodd;stroke-linecap:round;stroke-linejoin:round;stroke-miterlimit:1.5;">
    <path d="M72.5,41L72.5,45C72.5,46.38 71.38,47.5 70,47.5C68.62,47.5 67.5,46.38 67.5,45L67.5,41L62.5,41L62.5,50C62.5,51.38 61.38,52.5 60,52.5C58.62,52.5 57.5,51.38 57.5,50L57.5,41L52.5,41L52.5,45C52.5,46.38 51.38,47.5 50,47.5C48.62,47.5 47.5,46.38 47.5,45L47.5,41L42.5,41L42.5,50C42.5,51.38 41.38,52.5 40,52.5C38.62,52.5 37.5,51.38 37.5,50L37.5,41L32.5,41L32.5,45C32.5,46.38 31.38,47.5 30,47.5C28.62,47.5 27.5,46.38 27.5,45L27.5,41L16,41L16,59L84,59L84,41L72.5,41Z" style="stroke:black;stroke-width:1.5px;"/>
</svg>
