<svg xmlns="http://www.w3.org/2000/svg" width="16" height="16" viewBox="0 0 16 16">
    <path d="M0.502,4.5C0.226,4.5 0.002,4.724 0.002,5L0.002,11C0.002,11.276 0.226,11.5 0.502,11.5L15.53,11.5C15.806,11.5 16.03,11.276 16.03,11L16.03,5C16.03,4.724 15.806,4.5 15.53,4.5L13,4.5C12.724,4.5 12.5,4.724 12.5,5L12.5,7C12.5,7.14 12.483,7.277 12.4,7.374C12.322,7.466 12.188,7.5 12,7.5C11.812,7.5 11.678,7.466 11.6,7.374C11.517,7.277 11.5,7.14 11.5,7L11.5,5C11.5,4.724 11.276,4.5 11,4.5L9,4.5C8.724,4.5 8.5,4.724 8.5,5L8.5,6C8.5,6.167 8.375,6.5 8,6.5C7.625,6.5 7.5,6.167 7.5,6L7.5,5C7.5,4.724 7.276,4.5 7,4.5L5,4.5C4.724,4.5 4.5,4.724 4.5,5L4.5,7C4.5,7.167 4.374,7.5 4,7.5C3.625,7.5 3.5,7.167 3.5,7L3.5,5C3.5,4.724 3.276,4.5 3,4.5L0.502,4.5ZM1.002,5.5L2.5,5.5C2.5,5.5 2.5,7 2.5,7C2.5,7.5 2.874,8.5 4,8.5C5.122,8.5 5.5,7.5 5.5,7L5.5,5.5C5.5,5.5 6.5,5.5 6.5,5.5C6.5,5.5 6.5,6 6.5,6C6.5,6.5 6.875,7.5 8,7.5C9.125,7.5 9.5,6.5 9.5,6L9.5,5.5C9.5,5.5 10.5,5.5 10.5,5.5C10.5,5.5 10.5,7 10.5,7C10.5,7.388 10.608,7.75 10.837,8.021C11.072,8.297 11.437,8.5 12,8.5C12.562,8.5 12.927,8.298 13.162,8.021C13.392,7.75 13.5,7.388 13.5,7L13.5,5.5C13.5,5.5 15.03,5.5 15.03,5.5C15.03,5.5 15.03,10.5 15.03,10.5C15.03,10.5 1.002,10.5 1.002,10.5L1.002,5.5Z"/>
</svg>
