<svg xmlns="http://www.w3.org/2000/svg" viewBox="0 0 100 100">
	<path d="M 83.955 47.526 L 71.185 29.169 A 5.833 5.833 0 0 0 66.396 26.667 H 33.604 A 5.833 5.833 0 0 0 28.814 29.169 L 16.044 47.526 A 5.833 5.833 0 0 0 15 50.857 V 67.5 A 5.833 5.833 0 0 0 20.833 73.333 H 79.167 A 5.833 5.833 0 0 0 85 67.5 V 50.857 A 5.833 5.833 0 0 0 83.955 47.526 Z M 33.604 32.5 H 66.396 L 75.865 46.111 H 24.135 Z M 79.167 67.5 H 20.833 V 51.944 H 79.167 Z M 75.277 59.722 A 3.889 3.889 0 1 1 67.5 59.722 A 3.889 3.889 0 0 1 75.278 59.722 Z M 63.611 59.722 A 3.889 3.889 0 1 1 55.833 59.722 A 3.889 3.889 0 0 1 63.611 59.722 Z"/>
</svg>
