<?xml version="1.0" encoding="UTF-8" standalone="no"?>
<svg xmlns="http://www.w3.org/2000/svg" viewBox="0 0 100 100">
	<path d="m 85,25.9375 v 39.375 H 58.75 v -4.375 h 21.875 v -30.625 h -52.5 v 8.75 H 23.75 v -13.125 z m -35,35 h 4.375 v 8.75 q 0,0.92285 -0.341797,1.70898 -0.341797,0.78614 -0.939941,1.38428 -0.598145,0.59815 -1.384278,0.93994 Q 50.922852,74.0625 50,74.0625 H 19.375 q -0.922852,0 -1.708984,-0.3418 Q 16.879883,73.37891 16.281738,72.78076 15.683594,72.18262 15.341797,71.39648 15,70.61035 15,69.6875 v -21.875 q 0,-0.92285 0.341797,-1.70898 0.341797,-0.78614 0.939941,-1.38428 0.598145,-0.59815 1.384278,-0.93994 0.786132,-0.3418 1.708984,-0.3418 h 17.5 v 4.375 h -17.5 v 21.875 H 50 Z m -8.75,-17.5 q 2.734375,0 5.126953,1.02539 2.392578,1.02539 4.169922,2.80273 1.777344,1.77735 2.802734,4.16993 Q 54.375,53.82812 54.375,56.5625 H 50 Q 50,54.75098 49.316406,53.16162 48.632812,51.57227 47.436523,50.37598 46.240234,49.17969 44.650879,48.49609 43.061523,47.8125 41.25,47.8125 Z m 0,8.75 q 0.922852,0 1.708984,0.3418 0.786133,0.34179 1.384278,0.93994 0.598144,0.59814 0.939941,1.38428 Q 45.625,55.63965 45.625,56.5625 H 41.25 Z m 17.5,4.375 q 0,-3.62305 -1.384277,-6.80176 -1.384278,-3.17871 -3.759766,-5.5542 Q 51.230469,41.83105 48.051758,40.44678 44.873047,39.0625 41.25,39.0625 v -4.375 q 4.545898,0 8.527832,1.70898 3.981934,1.70899 6.955566,4.68262 2.973633,2.97363 4.682618,6.95557 Q 63.125,52.0166 63.125,56.5625 Z" style="stroke-width:0.0341797" />
</svg>
