<svg xmlns="http://www.w3.org/2000/svg" viewBox="0 0 100 100"><path d="m 82.833,68.167 c -1.104,0 -2,0.896 -2,2 v 8 h -8 c -1.104,0 -2,0.896 -2,2 0,1.104 0.896,2 2,2 h 10 c 1.104,0 2,-0.896 2,-2 v -10 c 0,-1.105 -0.895,-2 -2,-2 z m -21.416,10 H 38.584 c -1.104,0 -2,0.896 -2,2 0,1.104 0.896,2 2,2 h 22.833 c 1.104,0 2,-0.896 2,-2 0,-1.104 -0.896,-2 -2,-2 z m -34.25,0 h -8 v -8 c 0,-1.104 -0.896,-2 -2,-2 -1.104,0 -2,0.896 -2,2 v 10 c 0,1.104 0.896,2 2,2 h 10 c 1.104,0 2,-0.896 2,-2 0,-1.104 -0.896,-2 -2,-2 z m -10,-16.084 c 1.104,0 2,-0.896 2,-2 V 39.917 c 0,-1.104 -0.896,-2 -2,-2 -1.104,0 -2,0.896 -2,2 v 20.166 c 0,1.105 0.895,2 2,2 z m 10,-44.25 h -10 c -1.104,0 -2,0.896 -2,2 v 10 c 0,1.104 0.896,2 2,2 1.104,0 2,-0.896 2,-2 v -8 h 8 c 1.104,0 2,-0.896 2,-2 0,-1.104 -0.896,-2 -2,-2 z m 34.25,0 H 38.583 c -1.104,0 -2,0.896 -2,2 0,1.104 0.896,2 2,2 h 22.834 c 1.104,0 2,-0.896 2,-2 0,-1.104 -0.896,-2 -2,-2 z m 21.416,0 h -10 c -1.104,0 -2,0.896 -2,2 0,1.104 0.896,2 2,2 h 8 v 8 c 0,1.104 0.896,2 2,2 1.104,0 2,-0.896 2,-2 v -10 c 0,-1.104 -0.895,-2 -2,-2 z m 0,20.084 c -1.104,0 -2,0.896 -2,2 v 20.167 c 0,1.104 0.896,2 2,2 1.104,0 2,-0.896 2,-2 V 39.917 c 0,-1.105 -0.895,-2 -2,-2 z" transform="matrix(1.0048 0 0 1.0048 -.239715 -.239715)"/></svg>