<svg xmlns="http://www.w3.org/2000/svg" viewBox="0 0 100 100"><path d="m 42.989,47.56 c 0.236,-0.603 0.079,-1.289 -0.396,-1.729 L 17.679,22.739 C 17.221,22.314 16.554,22.2 15.978,22.45 15.404,22.7 15.034,23.267 15.034,23.893 V 61.57 c 0,0.694 0.455,1.306 1.119,1.507 0.151,0.045 0.304,0.067 0.456,0.067 0.517,0 1.013,-0.255 1.311,-0.702 l 9.239,-13.868 14.366,-0.015 c 0.647,0.001 1.228,-0.396 1.464,-0.999 z M 26.313,45.427 c -0.526,0 -1.017,0.264 -1.309,0.702 L 18.183,56.367 V 27.5 l 19.328,17.915 z m 57.866,9.474 -6.866,-3.964 c -0.487,-0.281 -1.087,-0.281 -1.575,0 -0.487,0.281 -0.788,0.801 -0.788,1.364 v 2.301 h -9.823 v -9.735 h 2.389 c 0.005,0 0.01,0 0.016,0 0.87,0 1.575,-0.706 1.575,-1.575 0,-0.361 -0.123,-0.694 -0.327,-0.96 l -3.865,-6.695 c -0.281,-0.487 -0.8,-0.787 -1.363,-0.787 -0.563,0 -1.083,0.3 -1.364,0.787 l -3.965,6.868 c -0.281,0.487 -0.281,1.088 0,1.575 0.282,0.487 0.801,0.788 1.364,0.788 h 2.39 v 9.735 h -9.825 v -2.301 c 0,-0.562 -0.3,-1.083 -0.788,-1.364 -0.487,-0.281 -1.087,-0.281 -1.575,0 l -6.866,3.964 c -0.487,0.281 -0.788,0.801 -0.788,1.364 0,0.562 0.3,1.082 0.788,1.363 l 6.866,3.965 c 0.244,0.141 0.516,0.211 0.788,0.211 0.272,0 0.543,-0.071 0.787,-0.211 0.488,-0.281 0.788,-0.801 0.788,-1.364 v -2.479 h 9.825 v 9.911 h -2.39 c -0.563,0 -1.083,0.3 -1.364,0.787 -0.281,0.487 -0.281,1.088 0,1.575 l 3.965,6.868 c 0.282,0.487 0.801,0.788 1.364,0.788 0.563,0 1.083,-0.3 1.363,-0.788 l 3.965,-6.868 c 0.282,-0.487 0.282,-1.088 0,-1.575 -0.281,-0.487 -0.801,-0.787 -1.364,-0.787 h -2.389 v -9.911 h 9.823 v 2.479 c 0,0.562 0.301,1.083 0.788,1.364 0.244,0.141 0.516,0.211 0.787,0.211 0.272,0 0.545,-0.071 0.788,-0.211 l 6.866,-3.965 c 0.488,-0.281 0.788,-0.801 0.788,-1.363 -0.001,-0.563 -0.3,-1.084 -0.788,-1.365 z m -20.627,-15.327 1.236,2.143 h -2.474 z m -14.55,17.928 -2.142,-1.237 2.142,-1.237 z m 14.55,15.454 -1.237,-2.144 h 2.474 z M 78.1,57.502 v -2.474 l 2.143,1.237 z" transform="matrix(1.00096 0 0 1.00096 -.04840548 -.04740022)"/></svg>