<svg xmlns="http://www.w3.org/2000/svg" viewBox="0 0 100 100">
  <path d="M 50,15 C 36.088977,14.810144 22.711693,23.875351 17.59172,36.785724 12.346738,49.207332 15.246079,64.496669 24.678102,74.133539 33.848894,84.006167 48.959434,87.643912 61.61632,83.017106 74.879757,78.49884 84.623338,65.379046 84.974271,51.350457 85.680918,37.721595 77.490376,24.245511 65.157728,18.457727 60.451643,16.179247 55.227906,14.993104 50,15 Z m 0,5.384766 C 63.155825,20.1402 75.614852,29.802692 78.684368,42.59059 82.046586,54.883484 76.372812,68.891439 65.367358,75.333385 54.127699,82.397891 38.278075,80.507809 29.049763,70.950237 19.492191,61.721925 17.602109,45.872301 24.666615,34.632642 29.886787,25.885536 39.80633,20.285549 50,20.384766 Z"/>
  <path transform="matrix(0.16826923,0,0,0.16826923,6.9230771,6.9230771)" d="M 352.07812 160 A 16 16 0 0 0 339.74805 165.70898 L 217.18359 311.62109 L 171.89258 261.29688 A 16 16 0 0 0 149.29688 260.10742 A 16 16 0 0 0 148.10742 282.70312 L 205.70703 346.70312 A 16.0016 16.0016 0 0 0 229.85156 346.29102 L 364.25195 186.29102 A 16 16 0 0 0 362.29102 163.74805 A 16 16 0 0 0 352.07812 160 z"/>
</svg>
