<svg xmlns="http://www.w3.org/2000/svg" viewBox="0 0 100 100">
  <path d="M 17.691 40.129 A 2.692 2.692 0 0 0 15 42.82 A 2.692 2.692 0 0 0 17.691 45.514 H 67.95 A 2.692 2.692 0 0 0 70.642 42.82 A 2.692 2.692 0 0 0 67.95 40.129 H 17.691 Z M 17.691 25.77 A 2.692 2.692 0 0 0 15 28.46 A 2.692 2.692 0 0 0 17.691 31.154 H 82.31 A 2.692 2.692 0 0 0 85 28.461 A 2.692 2.692 0 0 0 82.309 25.77 H 17.69 Z M 17.691 54.486 A 2.692 2.692 0 0 0 15 57.18 A 2.692 2.692 0 0 0 17.691 59.871 H 82.31 A 2.692 2.692 0 0 0 85 57.18 A 2.692 2.692 0 0 0 82.309 54.486 H 17.69 Z M 17.691 68.846 A 2.692 2.692 0 0 0 15 71.539 A 2.692 2.692 0 0 0 17.691 74.23 H 67.95 A 2.692 2.692 0 0 0 70.642 71.54 A 2.692 2.692 0 0 0 67.95 68.846 H 17.691 Z" />
</svg>
