<svg
   width="100"
   height="100"
   viewBox="0 0 100 100"
   version="1.1"
   xmlns="http://www.w3.org/2000/svg">
  <path
     d="M 10.025,8 A 4.486,4.486 0 0 1 8.707,11.182 L 8,10.475 A 3.489,3.489 0 0 0 9.025,8 C 9.025,7.034 8.633,6.159 8,5.525 L 8.707,4.818 A 4.486,4.486 0 0 1 10.025,8 Z M 7,4 A 0.5,0.5 0 0 0 6.188,3.61 L 3.825,5.5 H 1.5 A 0.5,0.5 0 0 0 1,6 v 4 a 0.5,0.5 0 0 0 0.5,0.5 h 2.325 l 2.363,1.89 A 0.5,0.5 0 0 0 7,12 Z M 4.312,6.39 6,5.04 v 5.92 L 4.312,9.61 A 0.5,0.5 0 0 0 4,9.5 H 2 v -3 H 4 A 0.5,0.5 0 0 0 4.312,6.39 Z m 5.809,6.206 A 6.48,6.48 0 0 0 12.025,8 6.48,6.48 0 0 0 10.121,3.404 L 9.414,4.111 A 5.483,5.483 0 0 1 11.025,8 5.483,5.483 0 0 1 9.415,11.89 Z m 1.415,1.414 A 8.473,8.473 0 0 0 14.026,8 8.473,8.473 0 0 0 11.536,1.99 L 10.828,2.697 A 7.476,7.476 0 0 1 13.025,8 c 0,2.071 -0.84,3.946 -2.197,5.303 z"
     transform="matrix(5.373865,0,0,5.373865,9.6261352,7.00908)" />
</svg>
