<svg xmlns="http://www.w3.org/2000/svg" viewBox="0 0 100 100">
  <path d="M70.58 42.404c-2.58-.33-5.277.816-6.588 3.307a2.188 2.188 0 0 0-.084.18l-4.994 12.02a2.188 2.188 0 0 0 1.18 2.859 2.188 2.188 0 0 0 2.86-1.18l4.923-11.852c.554-1.03 1.907-1.34 3.027-.703a2.188 2.188 0 0 0 .002 0c.596.339.784.639.905 1.13.12.49.088 1.244-.254 2.17a2.188 2.188 0 0 0-.002.007l-7.178 19.61c-1.291 3.075-2.971 5.666-5.613 7.542-2.647 1.88-6.362 3.131-12.05 3.131-5.53 0-10.048-1.783-13.292-5.307-3.245-3.524-5.3-8.94-5.3-16.568a2.188 2.188 0 0 0-2.188-2.188 2.188 2.188 0 0 0-2.188 2.188c0 8.423 2.319 15.037 6.457 19.531C34.341 82.776 40.213 85 46.715 85c6.344 0 11.086-1.456 14.582-3.938 3.495-2.481 5.641-5.9 7.123-9.435a2.188 2.188 0 0 0 .037-.094l7.203-19.681v-.002c.568-1.54.786-3.163.399-4.735-.388-1.572-1.468-3.019-2.993-3.885a6.766 6.766 0 0 0-2.486-.826zM47.81 15c-3.008 0-5.46 2.112-6.221 4.893a6.468 6.468 0 0 0-2.53-.518c-3.598 0-6.562 2.964-6.562 6.563v2.634c-.692-.25-1.414-.447-2.187-.447-3.599 0-6.563 2.964-6.563 6.563V58.75a2.188 2.188 0 0 0 2.188 2.188 2.188 2.188 0 0 0 2.187-2.188V34.687c0-1.234.954-2.187 2.188-2.187 1.234 0 2.187.953 2.187 2.188V50a2.188 2.188 0 0 0 2.188 2.188A2.188 2.188 0 0 0 36.87 50V25.937c0-1.234.954-2.187 2.188-2.187 1.234 0 2.187.953 2.187 2.188v21.875a2.188 2.188 0 0 0 .64 1.546 2.188 2.188 0 0 0 1.548.641 2.188 2.188 0 0 0 2.187-2.188V21.564c0-1.235.954-2.188 2.188-2.188 1.234 0 2.187.953 2.187 2.188v26.386a2.188 2.188 0 0 0 2.188 2.188 2.188 2.188 0 0 0 2.187-2.188V28.125c0-1.234.954-2.188 2.188-2.188 1.234 0 2.187.954 2.187 2.188V58.75a2.188 2.188 0 0 0 2.188 2.188 2.188 2.188 0 0 0 2.187-2.188V28.125c0-3.598-2.964-6.563-6.562-6.563-.774 0-1.496.197-2.188.448v-.448c0-3.598-2.964-6.562-6.562-6.562z" color="#000" fill="currentColor"/>
</svg>
