<svg xmlns="http://www.w3.org/2000/svg" viewBox="0 0 16 16" fill="#198754">
  <path d="M 4.9580494,3.3298158 A 0.47458514,0.47458514 0 0 0 4.2475717,3.2857172 L 3.5237943,4.0101945 C 3.1857049,4.3489839 3.0611089,4.8284689 3.2088042,5.2491557 a 12.297215,12.297215 0 0 0 2.9175086,4.6254552 12.297915,12.297915 0 0 0 4.6254552,2.9175081 c 0.420687,0.147695 0.900172,0.0231 1.238961,-0.31499 l 0.723778,-0.723777 a 0.47458514,0.47458514 0 0 0 -0.0441,-0.710478 L 11.055558,9.7871136 A 0.47458514,0.47458514 0 0 0 10.649571,9.7017163 L 9.1166192,10.084604 A 1.2214617,1.2214617 0 0 1 7.9567555,9.7633144 L 6.2376093,8.0434682 A 1.2214617,1.2214617 0 0 1 5.9156194,6.8836045 l 0.383588,-1.532952 A 0.47458514,0.47458514 0 0 0 6.2138101,4.9446653 Z M 3.7190882,2.7579337 a 1.2214617,1.2214617 0 0 1 1.8283427,0.1140965 l 1.2557607,1.6141494 c 0.2302928,0.2960907 0.3114903,0.6817787 0.2204931,1.0457673 l -0.382888,1.532952 A 0.47458514,0.47458514 0 0 0 6.7653928,7.5149848 L 8.4852389,9.2348309 A 0.47458514,0.47458514 0 0 0 8.9360248,9.359427 L 10.468277,8.976539 a 1.2214617,1.2214617 0 0 1 1.045767,0.2204931 l 1.61415,1.2557609 c 0.580282,0.451486 0.63348,1.308959 0.114096,1.827642 l -0.723777,0.723777 c -0.517984,0.517984 -1.29216,0.745477 -2.013837,0.491385 A 13.043392,13.043392 0 0 1 5.5978294,10.401694 13.043392,13.043392 0 0 1 2.5039263,5.495548 C 2.2505342,4.7745706 2.4780271,3.9996949 2.9960109,3.4817111 L 3.7197882,2.7579337 Z" />
</svg>
