<svg xmlns="http://www.w3.org/2000/svg" viewBox="0 0 16 16" fill="#d74417">
  <path d="M 4.9580495,3.3298158 A 0.47458514,0.47458514 0 0 0 4.2475718,3.2857172 L 3.5237944,4.0101945 C 3.185705,4.3489839 3.0611089,4.8284689 3.2088043,5.2491557 a 12.297215,12.297215 0 0 0 2.9175086,4.6254551 12.297915,12.297915 0 0 0 4.6254551,2.9175082 c 0.420687,0.147696 0.900172,0.0231 1.238961,-0.31499 l 0.723778,-0.723777 a 0.47458514,0.47458514 0 0 0 -0.0441,-0.710478 L 11.055559,9.7871136 A 0.47458514,0.47458514 0 0 0 10.649571,9.7017163 L 9.1166193,10.084604 A 1.2214617,1.2214617 0 0 1 7.9567556,9.7633143 L 6.2376094,8.0434682 A 1.2214617,1.2214617 0 0 1 5.9156195,6.8836045 l 0.383588,-1.532952 A 0.47458514,0.47458514 0 0 0 6.2138102,4.9446652 Z M 3.7190883,2.7579337 A 1.2214617,1.2214617 0 0 1 5.547431,2.8720301 L 6.8031917,4.4861796 C 7.0334845,4.7822703 7.114682,5.1679582 7.0236848,5.5319468 l -0.382888,1.532952 A 0.47458514,0.47458514 0 0 0 6.7653929,7.5149847 L 8.485239,9.2348309 A 0.47458514,0.47458514 0 0 0 8.9360249,9.359427 L 10.468277,8.976539 a 1.2214617,1.2214617 0 0 1 1.045767,0.2204931 l 1.61415,1.2557609 c 0.580281,0.451486 0.63348,1.308959 0.114096,1.827642 l -0.723777,0.723778 c -0.517984,0.517984 -1.29216,0.745476 -2.013837,0.491384 A 13.043392,13.043392 0 0 1 5.5978295,10.401694 13.043392,13.043392 0 0 1 2.5039264,5.495548 C 2.2505343,4.7745705 2.4780272,3.9996948 2.9960109,3.481711 L 3.7197883,2.7579337 Z" />
  <path d="m 10.202285,3.5524088 a 0.34998904,0.34998904 0 0 1 0.495585,0 l 0.802175,0.8028749 0.802175,-0.8028749 a 0.35043115,0.35043115 0 0 1 0.495584,0.4955845 l -0.802875,0.8021749 0.802875,0.8021749 A 0.35043115,0.35043115 0 0 1 12.30222,6.1479275 L 11.500045,5.3450527 10.69787,6.1479275 A 0.3504313,0.3504313 0 0 1 10.202285,5.6523431 L 11.00516,4.8501682 10.202285,4.0479933 a 0.34998904,0.34998904 0 0 1 0,-0.4955845 z" />
</svg>
