<?xml version="1.0" encoding="UTF-8" standalone="no"?>
<svg
        width="100"
        height="100"
        viewBox="0 0 100 100"
        xmlns="http://www.w3.org/2000/svg"
        xmlns:svg="http://www.w3.org/2000/svg">
  <path
          d="M 43.229362,17.258162 A 2.2581627,2.2581627 0 0 1 45.487525,15 h 9.032651 a 2.2581627,2.2581627 0 0 1 0,4.516325 v 2.574306 c 6.142202,0.885199 11.715348,3.522733 16.18651,7.406773 a 3.2291727,3.2291727 0 0 1 0.0542,-0.05871 l 1.598779,-1.598779 -1.598779,-1.594263 a 2.259419,2.259419 0 0 1 3.193042,-3.197558 l 6.386084,6.3906 a 2.2581627,2.2581627 0 1 1 -3.193042,3.193042 l -1.594263,-1.598779 -1.598779,1.598779 a 2.3123586,2.3123586 0 0 1 -0.05871,0.0542 31.614278,31.614278 0 1 1 -28.407687,-10.590783 v -2.578822 a 2.2581627,2.2581627 0 0 1 -2.258163,-2.258163 z m 6.774488,9.032651 a 27.097953,27.097953 0 1 0 0.0045,54.195905 27.097953,27.097953 0 0 0 -0.0045,-54.195905 z m 2.258163,11.742446 a 2.2581627,2.2581627 0 1 0 -4.516325,0 V 51.130603 H 34.196711 a 2.2581627,2.2581627 0 0 0 0,4.516325 H 50.00385 a 2.2581627,2.2581627 0 0 0 2.258163,-2.258162 z" />
</svg>
