<svg xmlns="http://www.w3.org/2000/svg" viewBox="0 0 100 100"><path d="m 78.731343,21.343285 q 2.537314,0 4.402985,1.865672 Q 85,25.074628 85,27.761195 v 44.47761 q 0,2.68657 -1.865672,4.55224 -1.865671,1.86567 -4.402985,1.86567 H 56.343284 v -6.41791 H 78.731343 V 27.761195 H 21.41791 v 9.552239 H 15 v -9.552239 q 0,-2.686567 1.865672,-4.552238 1.865671,-1.865672 4.552238,-1.865672 z M 15,69.104475 q 4.029851,0 6.791045,2.7612 2.761194,2.76119 2.761194,6.79104 H 15 Z m 0,-12.68656 q 9.253731,0 15.746269,6.49253 6.492537,6.49254 6.492537,15.74627 h -6.268657 q 0,-6.56716 -4.701492,-11.26865 Q 21.567164,62.686565 15,62.686565 Z m 0,-12.835824 q 14.477612,0 24.776119,10.298507 10.298508,10.298507 10.298508,24.776117 h -6.417911 q 0,-11.9403 -8.358209,-20.2985 Q 26.940299,50.000001 15,50.000001 Z"/></svg>