<svg width="100%" height="100%" viewBox="0 0 100 100" version="1.1" xmlns="http://www.w3.org/2000/svg" xmlns:xlink="http://www.w3.org/1999/xlink" xml:space="preserve" xmlns:serif="http://www.serif.com/" style="fill-rule:evenodd;clip-rule:evenodd;stroke-linecap:round;stroke-linejoin:round;stroke-miterlimit:1.5;">
    <path d="M77.46,58.75C77.764,60.239 77.916,61.84 77.916,63.552C77.916,70.421 75.583,75.713 70.916,79.428C66.249,83.143 59.567,85 50.868,85C47.471,85 44.437,84.776 41.768,84.328C39.099,83.88 36.513,83.189 34.012,82.256C33.415,83.227 32.724,83.927 31.94,84.356C31.156,84.785 30.073,85 28.692,85C26.34,85 24.697,84.552 23.764,83.656C22.831,82.76 22.345,81.173 22.308,78.896L22.084,65.736L22.084,65.12C22.084,62.656 22.541,60.939 23.456,59.968C24.001,59.39 24.788,58.984 25.816,58.75L29.739,58.75C31.518,59.337 33.055,61.013 34.348,63.776C34.721,64.635 35.02,65.288 35.244,65.736C36.7,68.611 38.725,70.757 41.32,72.176C43.915,73.595 47.097,74.304 50.868,74.304C54.303,74.304 56.972,73.595 58.876,72.176C60.78,70.757 61.732,68.76 61.732,66.184C61.732,63.144 59.234,60.666 54.239,58.75L77.46,58.75ZM23.875,41.25C23.577,39.855 23.428,38.347 23.428,36.728C23.428,30.344 25.827,25.127 30.624,21.076C35.421,17.025 41.628,15 49.244,15C51.783,15 54.275,15.261 56.72,15.784C59.165,16.307 61.601,17.091 64.028,18.136C64.588,16.941 65.223,16.12 65.932,15.672C66.641,15.224 67.724,15 69.18,15C71.345,15 72.736,15.401 73.352,16.204C73.968,17.007 74.313,18.603 74.388,20.992L74.612,31.744L74.612,32.36C74.612,34.563 74.173,36.103 73.296,36.98C72.419,37.857 70.935,38.296 68.844,38.296C66.193,38.296 64.215,36.877 62.908,34.04C62.721,33.629 62.572,33.293 62.46,33.032C61.303,30.717 59.735,28.972 57.756,27.796C55.777,26.62 53.444,26.032 50.756,26.032C47.396,26.032 44.68,26.807 42.608,28.356C40.536,29.905 39.5,31.893 39.5,34.32C39.5,37.111 42.63,39.421 48.889,41.25L23.875,41.25Z" style="fill-rule:nonzero;"/>
    <g transform="matrix(0.857143,0,0,1,7.14286,0)">
        <path d="M85,50L15,50" style="fill:none;stroke:black;stroke-width:10.74px;"/>
    </g>
</svg>
