<svg width="100%" height="100%" viewBox="0 0 100 100" version="1.1" xmlns="http://www.w3.org/2000/svg" xmlns:xlink="http://www.w3.org/1999/xlink" xml:space="preserve" xmlns:serif="http://www.serif.com/" style="fill-rule:evenodd;clip-rule:evenodd;stroke-linejoin:round;stroke-miterlimit:2;">
    <g transform="matrix(1.68309,0,0,1.68309,-13.0866,-8.40584)">
        <path d="M26.414,25.983L29.602,30.459L32.672,25.983C31.906,25.92 31.328,25.67 30.938,25.233C30.547,24.795 30.352,24.186 30.352,23.405C30.352,22.483 30.578,21.819 31.031,21.412C31.484,21.006 32.234,20.803 33.281,20.803L38.531,20.803C39.578,20.803 40.332,21.006 40.793,21.412C41.254,21.819 41.484,22.483 41.484,23.405C41.484,24.264 41.262,24.909 40.816,25.338C40.371,25.768 39.703,25.983 38.813,25.983L38.133,25.983L32.273,34.116L39.188,43.42L39.773,43.42C40.664,43.42 41.332,43.635 41.777,44.065C42.223,44.495 42.445,45.139 42.445,45.998C42.445,46.92 42.215,47.584 41.754,47.991C41.293,48.397 40.531,48.6 39.469,48.6L33.188,48.6C32.125,48.6 31.363,48.397 30.902,47.991C30.441,47.584 30.211,46.92 30.211,45.998C30.211,45.155 30.414,44.526 30.82,44.112C31.227,43.698 31.859,43.467 32.719,43.42L29.109,38.194L25.406,43.42C26.313,43.436 26.98,43.659 27.41,44.088C27.84,44.518 28.055,45.155 28.055,45.998C28.055,46.92 27.824,47.584 27.363,47.991C26.902,48.397 26.141,48.6 25.078,48.6L19.617,48.6C18.555,48.6 17.801,48.397 17.355,47.991C16.91,47.584 16.688,46.92 16.688,45.998C16.688,45.139 16.91,44.495 17.355,44.065C17.801,43.635 18.469,43.42 19.359,43.42L19.945,43.42L26.367,34.631L20.133,25.983L19.57,25.983C18.664,25.983 17.988,25.768 17.543,25.338C17.098,24.909 16.875,24.264 16.875,23.405C16.875,22.483 17.105,21.819 17.566,21.412C18.027,21.006 18.789,20.803 19.852,20.803L25.852,20.803C26.914,20.803 27.676,21.006 28.137,21.412C28.598,21.819 28.828,22.483 28.828,23.405C28.828,24.202 28.625,24.819 28.219,25.256C27.813,25.694 27.211,25.936 26.414,25.983Z" style="fill-rule:nonzero;"/>
        <g transform="matrix(1,0,0,1,-6.52701,-15.8967)">
            <path d="M56.789,45.342L61.875,45.342L61.875,45.248C61.875,44.748 62.008,44.377 62.273,44.135C62.539,43.893 62.938,43.772 63.469,43.772C63.891,43.772 64.219,43.893 64.453,44.135C64.688,44.377 64.805,44.717 64.805,45.155L64.805,45.342L64.688,47.592C64.656,48.03 64.582,48.307 64.465,48.424C64.348,48.541 64.133,48.6 63.82,48.6L53.367,48.6C52.805,48.6 52.371,48.479 52.066,48.237C51.762,47.995 51.609,47.655 51.609,47.217C51.609,46.842 51.707,46.479 51.902,46.127C52.098,45.776 52.398,45.397 52.805,44.991L58.734,39.295C59.359,38.67 59.832,38.049 60.152,37.432C60.473,36.815 60.633,36.194 60.633,35.569C60.633,34.694 60.422,34.045 60,33.623C59.578,33.202 58.938,32.991 58.078,32.991C57.563,32.991 57.109,33.065 56.719,33.213C56.328,33.362 56.031,33.569 55.828,33.834C55.703,33.975 55.563,34.186 55.406,34.467C54.938,35.217 54.422,35.592 53.859,35.592C53.375,35.592 53.008,35.432 52.758,35.112C52.508,34.791 52.383,34.319 52.383,33.694C52.383,33.037 52.461,32.553 52.617,32.241C52.773,31.928 53.086,31.608 53.555,31.28C54.305,30.78 55.098,30.409 55.934,30.166C56.77,29.924 57.68,29.803 58.664,29.803C60.492,29.803 61.941,30.295 63.012,31.28C64.082,32.264 64.617,33.592 64.617,35.264C64.617,36.373 64.34,37.44 63.785,38.463C63.23,39.487 62.367,40.506 61.195,41.522L56.789,45.342Z" style="fill-rule:nonzero;"/>
        </g>
    </g>
</svg>
