<svg width="100%" height="100%" viewBox="0 0 16 16" version="1.1" xmlns="http://www.w3.org/2000/svg" xmlns:xlink="http://www.w3.org/1999/xlink" xml:space="preserve" xmlns:serif="http://www.serif.com/" style="fill-rule:evenodd;clip-rule:evenodd;stroke-linejoin:round;stroke-miterlimit:2;">
    <g transform="matrix(1,0,0,1,-1.99911,0.000131091)">
        <path d="M13.854,2.146C13.948,2.24 14.001,2.367 14.001,2.5C14.001,2.633 13.948,2.76 13.854,2.854L2.854,13.854C2.76,13.948 2.633,14.001 2.5,14.001C2.225,14.001 1.999,13.775 1.999,13.5C1.999,13.367 2.052,13.24 2.146,13.146L13.146,2.146C13.24,2.052 13.367,1.999 13.5,1.999C13.633,1.999 13.76,2.052 13.854,2.146Z"/>
    </g>
    <g transform="matrix(1,0,0,1,-1.99911,0.000131091)">
        <path d="M2.146,2.146C2.052,2.24 1.999,2.367 1.999,2.5C1.999,2.633 2.052,2.76 2.146,2.854L13.146,13.854C13.24,13.948 13.367,14.001 13.5,14.001C13.775,14.001 14.001,13.775 14.001,13.5C14.001,13.367 13.948,13.24 13.854,13.146L2.854,2.146C2.76,2.052 2.633,1.999 2.5,1.999C2.367,1.999 2.24,2.052 2.146,2.146Z"/>
    </g>
    <g transform="matrix(1.67235,0,0,1.67235,12.5483,-8.84171)">
        <path d="M0.709,6.166L0.105,6.166L0.105,6.131C0.105,5.723 0.4,5.287 1.063,5.287C1.646,5.287 2.023,5.613 2.023,6.043C2.023,6.432 1.766,6.66 1.547,6.891L1.01,7.463L1.01,7.493L2.064,7.493L2.064,8L0.143,8L0.143,7.605L1.1,6.615C1.238,6.473 1.393,6.311 1.393,6.107C1.393,5.927 1.246,5.787 1.051,5.787C1.047,5.787 1.043,5.787 1.039,5.787C0.858,5.787 0.709,5.936 0.709,6.117C0.709,6.12 0.709,6.122 0.709,6.125L0.709,6.166Z" style="fill-rule:nonzero;"/>
    </g>
</svg>
