<svg width="100%" height="100%" viewBox="0 0 100 100" version="1.1" xmlns="http://www.w3.org/2000/svg" xmlns:xlink="http://www.w3.org/1999/xlink" xml:space="preserve" xmlns:serif="http://www.serif.com/" style="fill-rule:evenodd;clip-rule:evenodd;stroke-linejoin:round;stroke-miterlimit:2;">
    <path d="M85,19.982C85,17.23 82.77,15 80.018,15C67.132,15 32.813,15 19.956,15C17.219,15 15,17.219 15,19.956C15,32.047 15,62.955 15,75.045C15,76.359 15.522,77.62 16.451,78.549C17.38,79.478 18.641,80 19.955,80L79.985,80C82.755,80 85,77.755 85,74.985C85,62.861 85,32.072 85,19.982ZM41,51L59,51L59,66L41,66L41,51ZM21,51L39,51L39,66L21,66L21,51ZM61,51L79,51L79,66L61,66L61,51ZM41,34L59,34L59,49L41,49L41,34ZM21,34L39,34L39,49L21,49L21,34ZM61,34L79,34L79,49L61,49L61,34Z"/>
</svg>
