<?xml version="1.0" encoding="UTF-8" standalone="no"?>
<svg
   viewBox="0 0 100 100"
   xmlns="http://www.w3.org/2000/svg">
  <g
     transform="matrix(4.375,0,0,4.375,15,15)">
    <path
       d="M 14.5,3 A 0.5,0.5 0 0 1 15,3.5 v 9 A 0.5,0.5 0 0 1 14.5,13 H 1.5 A 0.5,0.5 0 0 1 1,12.5 v -9 A 0.5,0.5 0 0 1 1.5,3 Z M 1.5,2 A 1.5,1.5 0 0 0 0,3.5 v 9 A 1.5,1.5 0 0 0 1.5,14 h 13 A 1.5,1.5 0 0 0 16,12.5 v -9 A 1.5,1.5 0 0 0 14.5,2 Z" />
    <path
       d="M 3,8.5 A 0.5,0.5 0 0 1 3.5,8 h 9 a 0.5,0.5 0 0 1 0,1 h -9 A 0.5,0.5 0 0 1 3,8.5 Z m 0,2 A 0.5,0.5 0 0 1 3.5,10 h 6 a 0.5,0.5 0 0 1 0,1 h -6 A 0.5,0.5 0 0 1 3,10.5 Z m 0,-5 A 0.5,0.5 0 0 1 3.5,5 h 9 A 0.5,0.5 0 0 1 13,5.5 v 1 A 0.5,0.5 0 0 1 12.5,7 h -9 A 0.5,0.5 0 0 1 3,6.5 Z" />
  </g>
</svg>
