<svg xmlns="http://www.w3.org/2000/svg" width="16" height="16" viewBox="0 0 16 16">
  <path d="M 1.5,2.5 C 1.5,1.6715729 2.1715729,1 3,1 h 10 c 0.828427,0 1.5,0.6715729 1.5,1.5 v 11 C 14.5,14.328427 13.828427,15 13,15 H 3 C 2.1715729,15 1.5,14.328427 1.5,13.5 Z m 1,11 C 2.5,13.776142 2.7238576,14 3,14 h 10 c 0.276142,0 0.5,-0.223858 0.5,-0.5 V 2.5 C 13.5,2.2238576 13.276142,2 13,2 H 3 C 2.7238576,2 2.5,2.2238576 2.5,2.5 Z"/>
  <path d="M11.434 4H4.566L4.5 5.994h.386c.21-1.252.612-1.446 2.173-1.495l.343-.011v6.343c0 .537-.116.665-1.049.748V12h3.294v-.421c-.938-.083-1.054-.21-1.054-.748V4.488l.348.01c1.56.05 1.963.244 2.173 1.496h.386L11.434 4z"/>
</svg>
