<svg width="100%" height="100%" viewBox="0 0 100 100" version="1.1" xmlns="http://www.w3.org/2000/svg" xmlns:xlink="http://www.w3.org/1999/xlink" xml:space="preserve" xmlns:serif="http://www.serif.com/" style="fill-rule:evenodd;clip-rule:evenodd;stroke-linejoin:round;stroke-miterlimit:1.5;">
    <g transform="matrix(0.818182,0,0,0.857143,10.6351,7.14286)">
        <path d="M30,71L30,85L85,85L85,25L75,15L30,15L30,20.833" style="fill:none;stroke:black;stroke-width:11.93px;"/>
    </g>
    <g transform="matrix(1,0,0,1,0.180556,-3.55271e-15)">
        <g transform="matrix(0.88,0,0,1,8.4,0)">
            <path d="M55.795,35L61.477,35" style="fill:none;stroke:black;stroke-width:5.31px;"/>
        </g>
        <g transform="matrix(0.88,0,0,1,8.4,0)">
            <path d="M61.477,35L70,35" style="fill:none;stroke:black;stroke-width:5.31px;stroke-linecap:round;"/>
        </g>
        <path d="M57.5,50L62.5,50" style="fill:none;stroke:black;stroke-width:5px;"/>
        <path d="M62.5,50L70,50" style="fill:none;stroke:black;stroke-width:5px;stroke-linecap:round;"/>
        <path d="M52.5,65L62.5,65" style="fill:none;stroke:black;stroke-width:5px;"/>
        <path d="M62.5,65L70,65" style="fill:none;stroke:black;stroke-width:5px;stroke-linecap:round;"/>
    </g>
    <g transform="matrix(1.77179,0,0,1.77179,-17.5162,-23.944)">
        <path d="M36.734,33.202L33.061,33.202L33.061,46.315L36.014,46.315C36.799,46.315 37.361,46.468 37.701,46.772C38.041,47.077 38.211,47.569 38.211,48.249C38.211,48.94 38.041,49.438 37.701,49.743C37.361,50.048 36.799,50.2 36.014,50.2L25.572,50.2C24.799,50.2 24.242,50.048 23.902,49.743C23.563,49.438 23.393,48.94 23.393,48.249C23.393,47.557 23.56,47.062 23.894,46.763C24.228,46.465 24.787,46.315 25.572,46.315L28.525,46.315L28.525,33.202L24.852,33.202L24.746,36.77L24.746,37.21C24.746,37.772 24.591,38.212 24.28,38.528C23.97,38.845 23.539,39.003 22.988,39.003C22.332,39.003 21.849,38.836 21.538,38.502C21.228,38.168 21.072,37.638 21.072,36.911L21.072,36.77L21.266,31.514C21.301,30.471 21.444,29.845 21.696,29.634C21.948,29.423 22.461,29.317 23.234,29.317L38.352,29.317C39.125,29.317 39.638,29.423 39.89,29.634C40.142,29.845 40.291,30.471 40.338,31.514L40.514,36.77L40.514,36.911C40.514,37.649 40.367,38.182 40.074,38.511C39.781,38.839 39.307,39.003 38.65,39.003C38.018,39.003 37.563,38.842 37.288,38.519C37.013,38.197 36.863,37.614 36.84,36.77L36.734,33.202Z" style="fill-rule:nonzero;"/>
    </g>
</svg>
