<svg xmlns="http://www.w3.org/2000/svg" viewBox="0 0 100 100"><path d="M 15,68.103447 H 60.862067 V 31.896552 H 15 Z m 7.241379,-7.241379 h 4.827586 V 39.137931 h -4.827586 v -2.413793 h 14.482757 v 2.413793 h -4.827585 v 9.655172 H 43.965516 V 39.137931 H 39.13793 v -2.413793 h 14.482758 v 2.413793 h -4.827585 v 21.724137 h 4.827585 v 2.413793 H 39.13793 v -2.413793 h 4.827586 V 51.206896 H 31.896551 v 9.655172 h 4.827585 v 2.413793 H 22.241379 Z m 60.344825,9.655172 c -2.655172,0 -4.827586,-2.172414 -4.827586,-4.827585 h 4.827586 V 60.862068 H 77.758618 V 34.310345 c 0,-2.655172 2.172414,-4.827586 4.827586,-4.827586 1.448274,0 2.413796,-0.965517 2.413796,-2.413793 0,-1.448276 -0.965522,-2.413793 -2.413796,-2.413793 -2.896551,0 -5.551723,1.206897 -7.241379,3.37931 -1.689655,-1.931034 -4.344827,-3.37931 -7.241379,-3.37931 -1.448276,0 -2.413793,0.965517 -2.413793,2.413793 0,1.448276 0.965517,2.413793 2.413793,2.413793 2.655173,0 4.827586,2.172414 4.827586,4.827586 v 26.551723 h -4.827586 v 4.827587 h 4.827586 c 0,2.655172 -2.172413,4.827585 -4.827586,4.827585 -1.448276,0 -2.413793,0.965519 -2.413793,2.413795 0,1.448275 0.965517,2.413792 2.413793,2.413792 2.896552,0 5.551724,-1.206896 7.241379,-3.37931 1.689656,1.931035 4.344828,3.37931 7.241379,3.37931 C 84.034478,75.344827 85,74.37931 85,72.931035 85,71.482759 84.034478,70.51724 82.586204,70.51724 Z" clip-rule="evenodd" fill-rule="evenodd"/></svg>