<svg xmlns="http://www.w3.org/2000/svg" viewBox="0 0 100 100"><path d="m 81.171875,76.25 q 0.88867,0 1.53809,0.632324 0.64941,0.632324 0.64941,1.555176 0,0.820312 -0.58105,1.503906 -1.0254,1.196289 -2.3584,2.136231 -1.33301,0.939941 -2.83692,1.589355 -1.5039,0.649414 -3.11035,0.991211 Q 72.866215,85 71.328125,85 67.944336,85 65.073242,83.684082 62.202148,82.368164 59.87793,79.941406 58.203125,78.198242 56.152344,77.224121 54.101562,76.25 51.640625,76.25 q -2.392578,0 -4.494629,0.974121 -2.102051,0.974121 -3.742676,2.717285 l -0.324707,0.307617 -0.786133,0.769043 -1.0083,1.008301 -1.042481,1.025391 -0.854492,0.854492 -0.427246,0.444336 Q 38.310547,85 37.421875,85 36.533203,85 35.883789,84.350586 35.234375,83.701172 35.234375,82.8125 q 0,-0.888672 0.649414,-1.538086 1.845703,-1.845703 3.486328,-3.554687 1.640625,-1.708985 3.417969,-3.007813 1.777344,-1.298828 3.896484,-2.067871 2.119141,-0.769043 4.956055,-0.769043 3.383789,0 6.254883,1.315918 2.871094,1.315918 5.195312,3.742676 1.674805,1.743164 3.725586,2.717285 2.050779,0.974121 4.511719,0.974121 2.59766,0 4.51172,-0.974121 1.91406,-0.974121 3.72558,-2.717285 0.37598,-0.341797 0.73487,-0.512696 Q 80.659175,76.25 81.171875,76.25 Z M 55.571289,24.912109 q 0.478516,0.273438 0.786133,0.786133 0.307617,0.512696 0.307617,1.09375 0,0.273438 -0.06836,0.512696 -0.06836,0.239257 -0.170899,0.478515 L 32.260742,76.147461 q -0.307617,0.649414 -0.957031,0.957031 l -5.913086,2.973633 Q 24.296875,80.625 23.032227,80.625 H 22.70752 l -0.324708,-0.03418 -1.606445,3.212891 Q 20.50293,84.350586 19.973145,84.675293 19.443359,85 18.828125,85 17.939453,85 17.290039,84.350586 16.640625,83.701172 16.640625,82.8125 q 0,-0.410156 0.239258,-1.025391 0.239258,-0.615234 0.563965,-1.281738 0.324707,-0.666504 0.666504,-1.247559 0.341796,-0.581054 0.512695,-0.957031 -0.888672,-1.367187 -0.888672,-2.973633 V 69.6875 q 0,-0.546875 0.239258,-0.991211 l 19.6875,-39.375 -2.22168,-1.09375 -8.100586,16.201172 q -0.273437,0.546875 -0.803222,0.871582 -0.529786,0.324707 -1.14502,0.324707 -0.888672,0 -1.538086,-0.649414 -0.649414,-0.649414 -0.649414,-1.538086 0,-0.444336 0.239258,-0.991211 l 8.168945,-16.337891 q 0.546875,-1.09375 1.469727,-1.726074 Q 34.003906,23.75 35.234375,23.75 q 1.196289,0 2.272949,0.581055 1.07666,0.581054 2.102051,1.09375 l 2.426758,-4.853516 q 0.273437,-0.581055 0.803222,-0.888672 0.529786,-0.307617 1.14502,-0.307617 0.444336,0 0.751953,0.136719 0.410156,-0.820313 0.803223,-1.623535 0.393066,-0.803223 0.888672,-1.452637 0.495605,-0.649414 1.213379,-1.042481 Q 48.359375,15 49.453125,15 q 1.09375,0 2.084961,0.512695 l 3.212891,1.606446 q 1.09375,0.546875 1.726074,1.452636 0.632324,0.905762 0.632324,2.17041 0,1.16211 -0.529785,2.170411 -0.529785,1.0083 -1.008301,1.999511 z m -6.904297,-3.452148 2.973633,1.469726 0.991211,-1.982421 -2.973633,-1.469727 z m 2.871094,6.323242 -6.5625,-3.28125 -22.866211,45.698242 v 5.126953 q 0,0.375977 0.273437,0.649414 Q 22.65625,76.25 23.032227,76.25 q 0.136718,0 0.563964,-0.170898 0.427246,-0.170899 0.991211,-0.444336 0.563965,-0.273438 1.196289,-0.598145 0.632325,-0.324707 1.213379,-0.632324 0.581055,-0.307617 1.025391,-0.546875 0.444336,-0.239258 0.649414,-0.341797 z"/></svg>