<svg width="100%" height="100%" viewBox="0 0 100 100" version="1.1" xmlns="http://www.w3.org/2000/svg" xmlns:xlink="http://www.w3.org/1999/xlink" xml:space="preserve" xmlns:serif="http://www.serif.com/" style="fill-rule:evenodd;clip-rule:evenodd;stroke-linejoin:round;stroke-miterlimit:2;">
    <g transform="matrix(0.994164,0,0,0.994164,0.291814,-11.451)">
        <path d="M40.32,36.966L40.32,61.481C40.32,65.825 41.078,68.911 42.594,70.739C44.109,72.567 46.633,73.481 50.164,73.481C53.695,73.481 56.227,72.559 57.758,70.716C59.289,68.872 60.055,65.794 60.055,61.481L60.055,36.966L59.305,36.966C57.648,36.966 56.391,36.528 55.531,35.653C54.672,34.778 54.242,33.497 54.242,31.809C54.242,29.966 54.688,28.637 55.578,27.825C56.469,27.012 57.961,26.606 60.055,26.606L71.773,26.606C73.898,26.606 75.406,27.012 76.297,27.825C77.188,28.637 77.633,29.966 77.633,31.809C77.633,33.497 77.203,34.778 76.344,35.653C75.484,36.528 74.227,36.966 72.57,36.966L71.773,36.966L71.773,61.294C71.773,69.169 70.078,74.864 66.688,78.38C63.297,81.895 57.836,83.653 50.305,83.653C42.43,83.653 36.781,81.927 33.359,78.473C29.938,75.02 28.227,69.294 28.227,61.294L28.227,36.966L27.43,36.966C25.742,36.966 24.461,36.528 23.586,35.653C22.711,34.778 22.273,33.497 22.273,31.809C22.273,29.966 22.734,28.637 23.656,27.825C24.578,27.012 26.102,26.606 28.227,26.606L40.32,26.606C42.414,26.606 43.93,27.012 44.867,27.825C45.805,28.637 46.273,29.966 46.273,31.809C46.273,33.497 45.828,34.778 44.938,35.653C44.047,36.528 42.758,36.966 41.07,36.966L40.32,36.966Z" style="fill-rule:nonzero;"/>
        <g transform="matrix(1,0,0,1,0,-7.82344)">
            <rect x="21.195" y="96.028" width="57.609" height="8.813" style="fill-rule:nonzero;"/>
        </g>
    </g>
</svg>
