<?xml version="1.0" encoding="iso-8859-1"?>
<!-- Generator: Adobe Illustrator 16.0.0, SVG Export Plug-In . SVG Version: 6.00 Build 0)  -->
<!DOCTYPE svg PUBLIC "-//W3C//DTD SVG 1.1//EN" "http://www.w3.org/Graphics/SVG/1.1/DTD/svg11.dtd">
<svg version="1.1" id="Capa_1" xmlns="http://www.w3.org/2000/svg" xmlns:xlink="http://www.w3.org/1999/xlink" x="0px" y="0px"
	 width="35.695px" height="35.695px" viewBox="0 0 35.695 35.695" style="enable-background:new 0 0 35.695 35.695;"
	 xml:space="preserve">
<g>
	<path d="M11.558,10.767c0-3.473,2.815-6.29,6.289-6.29c3.476,0,6.289,2.817,6.289,6.29c0,3.475-2.813,6.29-6.289,6.29
		C14.373,17.057,11.558,14.243,11.558,10.767z M35.667,22.607l-0.879-5.27c-0.158-0.954-0.961-1.754-1.896-1.984
		c-0.836,0.74-1.932,1.191-3.136,1.191c-1.203,0-2.3-0.452-3.135-1.191c-0.938,0.229-1.739,1.03-1.897,1.984l-0.021,0.124
		c-0.522-0.503-1.17-0.881-1.868-1.052c-1.33,1.176-3.072,1.896-4.987,1.896s-3.657-0.72-4.987-1.896
		c-0.698,0.171-1.346,0.549-1.868,1.052l-0.021-0.124c-0.158-0.954-0.962-1.754-1.897-1.984c-0.835,0.74-1.932,1.191-3.135,1.191
		c-1.204,0-2.3-0.452-3.136-1.191c-0.936,0.229-1.738,1.03-1.896,1.984l-0.879,5.27c-0.189,1.131,0.596,2.057,1.741,2.057h7.222
		l-0.548,3.283c-0.3,1.799,0.948,3.271,2.771,3.271H24.48c1.823,0,3.071-1.475,2.771-3.271l-0.548-3.283h7.222
		C35.071,24.662,35.855,23.738,35.667,22.607z M29.755,15.762c2.184,0,3.954-1.77,3.954-3.954c0-2.183-1.771-3.954-3.954-3.954
		s-3.953,1.771-3.953,3.954C25.802,13.992,27.574,15.762,29.755,15.762z M5.938,15.762c2.183,0,3.953-1.77,3.953-3.954
		c0-2.183-1.771-3.954-3.953-3.954c-2.184,0-3.954,1.771-3.954,3.954C1.984,13.992,3.755,15.762,5.938,15.762z"/>
</g>
<g>
</g>
<g>
</g>
<g>
</g>
<g>
</g>
<g>
</g>
<g>
</g>
<g>
</g>
<g>
</g>
<g>
</g>
<g>
</g>
<g>
</g>
<g>
</g>
<g>
</g>
<g>
</g>
<g>
</g>
</svg>
