<?xml version="1.0" encoding="UTF-8" standalone="no"?>
<svg viewBox="0 0 100 100" version="1.1" xmlns="http://www.w3.org/2000/svg">
  <path d="m 45.406588,16.903408 c 2.537479,-2.537479 6.649944,-2.537479 9.187422,0 l 28.502882,28.507256 c 2.537478,2.537479 2.537478,6.645569 0,9.178672 L 54.59401,83.096593 c -2.537478,2.537478 -6.645568,2.537478 -9.178672,0 L 16.903706,54.593711 a 6.4836946,6.4836946 0 0 1 0,-9.178672 z m 6.124948,3.062473 a 2.1656065,2.1656065 0 0 0 -3.062474,0 L 19.961805,48.468763 a 2.1656065,2.1656065 0 0 0 0,3.062474 l 28.507257,28.507257 a 2.1656065,2.1656065 0 0 0 3.062474,0 L 80.038793,51.531237 a 2.1656065,2.1656065 0 0 0 0,-3.062474 L 51.531536,19.961506 Z" />
  <path d="m 45.625037,63.135825 a 4.374963,4.374963 0 1 1 8.749926,0 4.374963,4.374963 0 0 1 -8.749926,0 z m 0.428747,-26.271651 a 3.9593412,3.9593412 0 1 1 7.874933,0 L 52.39748,52.207168 a 2.4149794,2.4149794 0 0 1 -4.812459,0 z" />
</svg>
