<svg xmlns="http://www.w3.org/2000/svg" viewBox="0 0 100 100"><path d="m 22.968085,62.659574 q 9.234043,0 15.712766,6.553192 Q 45.159574,75.765957 45.159574,85 h -6.255319 q 0,-6.553191 -4.691489,-11.244681 -4.69149,-4.691489 -11.244681,-4.691489 z m 0,12.808511 q 4.021277,0 6.776596,2.755319 Q 32.5,80.978723 32.5,85 H 22.968085 Z M 22.968085,50 Q 37.414894,50 47.691489,60.202128 57.968085,70.404255 57.968085,85 H 51.56383 q 0,-11.914894 -8.340426,-20.255319 -8.340425,-8.340426 -20.255319,-8.340426 z m 47.65957,-34.851064 q 2.68086,0 4.54256,1.787234 1.8617,1.787234 1.8617,4.468085 v 54.06383 q 0,2.531915 -1.8617,4.393617 -1.8617,1.861702 -4.54256,1.861702 h -6.55319 q -0.59574,-6.702127 -3.12766,-12.659574 h 9.68085 V 27.808511 h -31.7234 V 46.87234 Q 35.925532,45.680851 32.5,44.787234 V 21.404255 q 0,-2.680851 1.861702,-4.542553 Q 36.223404,15 38.904255,15 Z"/></svg>