<svg xmlns="http://www.w3.org/2000/svg" viewBox="0 0 100 100"><path d="m 94.4,16.7 h -90 c -2.8,0 -5,2.2 -5,5 v 59.9 c 0,2.8 2.2,5 5,5 h 15 23.3 51.7 c 2.8,0 5,-2.2 5,-5 V 21.7 c 0,-2.8 -2.2,-5 -5,-5 z M 22.8,83.2 v -1.6 c 0,-0.9 0.8,-1.7 1.7,-1.7 h 13.3 c 0.9,0 1.7,0.7 1.7,1.7 v 1.7 H 22.8 Z m 73.3,-1.7 c 0,0.9 -0.7,1.7 -1.7,1.7 H 42.8 v -1.7 c 0,-2.7 -2.2,-5 -5,-5 H 24.5 c -2.8,0 -5,2.2 -5,5 v 1.6 H 4.5 C 3.6,83.1 2.8,82.4 2.8,81.4 V 58.1 C 4.8,58 6.6,57.7 8.2,57.1 9.1,56.8 9.5,55.8 9.2,55 8.9,54.1 7.9,53.7 7.1,54 5.9,54.4 4.4,54.7 2.8,54.8 V 21.7 C 2.8,20.8 3.5,20 4.5,20 h 90 c 0.9,0 1.7,0.7 1.7,1.7 V 81.5 Z M 32.4,35.8 c -0.9,-0.3 -1.8,0.1 -2.2,0.9 -0.3,0.9 0.1,1.8 0.9,2.2 1.6,0.6 2.9,1.8 4.2,3.7 0.3,0.5 0.8,0.7 1.4,0.7 0.3,0 0.7,-0.1 0.9,-0.3 0.8,-0.5 1,-1.6 0.4,-2.3 -1.6,-2.5 -3.4,-4 -5.6,-4.9 z m -7.5,-0.5 c -2.6,0.6 -4.6,2 -6.4,4.2 -0.5,0.7 -0.4,1.8 0.3,2.3 0.3,0.2 0.6,0.3 1,0.3 0.5,0 1,-0.2 1.3,-0.7 1.2,-1.7 2.6,-2.6 4.4,-3 0.9,-0.2 1.5,-1.1 1.3,-2 -0.1,-0.8 -1,-1.3 -1.9,-1.1 z m -7.5,9.5 c -0.8,-0.4 -1.8,-0.1 -2.2,0.7 -0.9,1.7 -1.9,3.7 -3.3,5.2 -0.6,0.7 -0.6,1.7 0.1,2.3 0.3,0.3 0.7,0.4 1.1,0.4 0.5,0 0.9,-0.2 1.2,-0.6 1.7,-1.9 2.8,-4.1 3.8,-6 0.5,-0.6 0.1,-1.6 -0.7,-2 z m 24.1,1.8 C 41.1,45.8 40,45.5 39.2,46 c -0.8,0.4 -1.1,1.5 -0.6,2.3 1,1.8 2.3,4 4.2,5.8 0.3,0.3 0.7,0.5 1.2,0.5 0.4,0 0.9,-0.2 1.2,-0.5 0.6,-0.7 0.6,-1.7 0,-2.4 -1.6,-1.6 -2.8,-3.5 -3.7,-5.1 z m 12.9,8.3 v 0 c -1.5,0 -3.1,-0.2 -4.4,-0.5 -0.9,-0.2 -1.8,0.3 -2,1.2 -0.2,0.9 0.3,1.8 1.2,2 1.6,0.4 3.3,0.6 5.2,0.6 0,0 0,0 0,0 0.9,0 1.7,-0.7 1.7,-1.7 0,-0.8 -0.7,-1.6 -1.7,-1.6 z m 29.5,-22 C 82,31 78.7,31 76.8,32.9 L 62.1,47.6 c -0.2,0.2 -0.4,0.5 -0.4,0.8 L 60,55.8 c -0.1,0.6 0,1.1 0.5,1.5 0.3,0.3 0.7,0.5 1.2,0.5 0.1,0 0.2,0 0.4,0 l 7.4,-1.6 c 0.3,-0.1 0.6,-0.2 0.8,-0.4 L 84.9,41 c 0.9,-0.9 1.5,-2.2 1.5,-3.5 0,-1.3 -0.5,-2.6 -1.5,-3.5 z m -19.2,17.2 3,3 -3.8,0.9 z M 82.5,38.7 70.2,50.9 66.8,47.5 79.1,35.2 c 0.6,-0.6 1.7,-0.6 2.4,0 l 1,1 c 0.3,0.3 0.5,0.7 0.5,1.2 0,0.5 -0.2,0.9 -0.5,1.3 z m 11.9,-22 h -90 c -2.8,0 -5,2.2 -5,5 v 59.9 c 0,2.8 2.2,5 5,5 h 15 23.3 51.7 c 2.8,0 5,-2.2 5,-5 V 21.7 c 0,-2.8 -2.2,-5 -5,-5 z M 22.8,83.2 v -1.6 c 0,-0.9 0.8,-1.7 1.7,-1.7 h 13.3 c 0.9,0 1.7,0.7 1.7,1.7 v 1.7 H 22.8 Z m 73.3,-1.7 c 0,0.9 -0.7,1.7 -1.7,1.7 H 42.8 v -1.7 c 0,-2.7 -2.2,-5 -5,-5 H 24.5 c -2.8,0 -5,2.2 -5,5 v 1.6 H 4.5 C 3.6,83.1 2.8,82.4 2.8,81.4 V 58.1 C 4.8,58 6.6,57.7 8.2,57.1 9.1,56.8 9.5,55.8 9.2,55 8.9,54.1 7.9,53.7 7.1,54 5.9,54.4 4.4,54.7 2.8,54.8 V 21.7 C 2.8,20.8 3.5,20 4.5,20 h 90 c 0.9,0 1.7,0.7 1.7,1.7 V 81.5 Z M 32.4,35.8 c -0.9,-0.3 -1.8,0.1 -2.2,0.9 -0.3,0.9 0.1,1.8 0.9,2.2 1.6,0.6 2.9,1.8 4.2,3.7 0.3,0.5 0.8,0.7 1.4,0.7 0.3,0 0.7,-0.1 0.9,-0.3 0.8,-0.5 1,-1.6 0.4,-2.3 -1.6,-2.5 -3.4,-4 -5.6,-4.9 z m -7.5,-0.5 c -2.6,0.6 -4.6,2 -6.4,4.2 -0.5,0.7 -0.4,1.8 0.3,2.3 0.3,0.2 0.6,0.3 1,0.3 0.5,0 1,-0.2 1.3,-0.7 1.2,-1.7 2.6,-2.6 4.4,-3 0.9,-0.2 1.5,-1.1 1.3,-2 -0.1,-0.8 -1,-1.3 -1.9,-1.1 z m -7.5,9.5 c -0.8,-0.4 -1.8,-0.1 -2.2,0.7 -0.9,1.7 -1.9,3.7 -3.3,5.2 -0.6,0.7 -0.6,1.7 0.1,2.3 0.3,0.3 0.7,0.4 1.1,0.4 0.5,0 0.9,-0.2 1.2,-0.6 1.7,-1.9 2.8,-4.1 3.8,-6 0.5,-0.6 0.1,-1.6 -0.7,-2 z m 24.1,1.8 C 41.1,45.8 40,45.5 39.2,46 c -0.8,0.4 -1.1,1.5 -0.6,2.3 1,1.8 2.3,4 4.2,5.8 0.3,0.3 0.7,0.5 1.2,0.5 0.4,0 0.9,-0.2 1.2,-0.5 0.6,-0.7 0.6,-1.7 0,-2.4 -1.6,-1.6 -2.8,-3.5 -3.7,-5.1 z m 12.9,8.3 v 0 c -1.5,0 -3.1,-0.2 -4.4,-0.5 -0.9,-0.2 -1.8,0.3 -2,1.2 -0.2,0.9 0.3,1.8 1.2,2 1.6,0.4 3.3,0.6 5.2,0.6 0,0 0,0 0,0 0.9,0 1.7,-0.7 1.7,-1.7 0,-0.8 -0.7,-1.6 -1.7,-1.6 z m 29.5,-22 C 82,31 78.7,31 76.8,32.9 L 62.1,47.6 c -0.2,0.2 -0.4,0.5 -0.4,0.8 L 60,55.8 c -0.1,0.6 0,1.1 0.5,1.5 0.3,0.3 0.7,0.5 1.2,0.5 0.1,0 0.2,0 0.4,0 l 7.4,-1.6 c 0.3,-0.1 0.6,-0.2 0.8,-0.4 L 84.9,41 c 0.9,-0.9 1.5,-2.2 1.5,-3.5 0,-1.3 -0.5,-2.6 -1.5,-3.5 z m -19.2,17.2 3,3 -3.8,0.9 z M 82.5,38.7 70.2,50.9 66.8,47.5 79.1,35.2 c 0.6,-0.6 1.7,-0.6 2.4,0 l 1,1 c 0.3,0.3 0.5,0.7 0.5,1.2 0,0.5 -0.2,0.9 -0.5,1.3 z" transform="matrix(.7 0 0 .7 15.42 13.845)"/></svg>