<svg xmlns="http://www.w3.org/2000/svg" viewBox="0 0 100 100"><path d="m 98.781,91.043 c -1.983,2.575 -5.675,3.054 -8.247,1.074 l -3.128,-2.405 7.172,-9.319 3.127,2.405 c 2.574,1.979 3.054,5.673 1.076,8.245 z M 85.721,88.414 61.186,69.535 C 54.5,75.823 45.714,79.348 36.325,79.348 28.254,79.348 20.599,76.741 14.187,71.807 6.492,65.888 1.565,57.326 0.312,47.7 -0.944,38.075 1.626,28.538 7.547,20.845 14.48,11.832 24.987,6.663 36.371,6.663 c 8.071,0 15.727,2.608 22.14,7.542 14.294,10.999 18.126,30.616 9.843,46.008 L 92.893,79.095 Z M 59.019,60.449 C 68.636,47.948 66.291,29.953 53.792,20.335 48.744,16.451 42.719,14.399 36.369,14.399 c -8.963,0 -17.234,4.069 -22.694,11.162 -4.657,6.056 -6.682,13.563 -5.694,21.141 0.987,7.576 4.866,14.315 10.922,18.974 5.046,3.885 11.07,5.937 17.421,5.937 8.964,-0.001 17.237,-4.07 22.695,-11.164 z M 15.766,48.796 H 56.93 V 38.918 H 15.766 Z" transform="matrix(.7 0 0 .7 14.999561 14.999465)"/></svg>