<svg xmlns="http://www.w3.org/2000/svg" viewBox="0 0 100 100"><path d="m 98.781,91.043 c -1.983,2.575 -5.675,3.055 -8.247,1.074 l -3.128,-2.405 7.172,-9.319 3.127,2.406 c 2.574,1.978 3.054,5.672 1.076,8.244 z M 85.721,88.414 61.186,69.535 C 54.5,75.823 45.714,79.348 36.324,79.348 28.253,79.348 20.598,76.741 14.187,71.807 6.492,65.888 1.565,57.326 0.312,47.7 -0.944,38.075 1.626,28.538 7.548,20.845 14.481,11.832 24.988,6.662 36.372,6.662 c 8.071,0 15.726,2.609 22.14,7.542 14.294,10.999 18.126,30.616 9.843,46.007 L 92.894,79.094 Z M 59.019,60.449 C 68.636,47.948 66.291,29.953 53.792,20.335 48.744,16.451 42.719,14.399 36.369,14.399 c -8.963,0 -17.234,4.068 -22.694,11.162 -4.657,6.056 -6.682,13.563 -5.694,21.141 0.987,7.576 4.866,14.315 10.922,18.974 5.046,3.885 11.07,5.936 17.422,5.936 8.963,-10e-4 17.236,-4.069 22.694,-11.163 z M 56.93,38.918 H 41.287 V 23.275 H 31.409 V 38.918 H 15.766 v 9.878 h 15.642 v 15.643 h 9.878 V 48.796 H 56.93 Z" transform="matrix(.7 0 0 .7 14.999558 14.999664)"/></svg>